<?xml version="1.0" encoding="utf-8"?>
<!-- Generator: Adobe Illustrator 15.1.0, SVG Export Plug-In  -->
<!DOCTYPE svg PUBLIC "-//W3C//DTD SVG 1.1//EN" "http://www.w3.org/Graphics/SVG/1.1/DTD/svg11.dtd" [
	<!ENTITY ns_flows "http://ns.adobe.com/Flows/1.0/">
]>
<svg version="1.1"
	 xmlns="http://www.w3.org/2000/svg" xmlns:xlink="http://www.w3.org/1999/xlink" xmlns:a="http://ns.adobe.com/AdobeSVGViewerExtensions/3.0/"
	 x="0px" y="0px" width="80px" height="800px" viewBox="0 0 80 800" overflow="visible" enable-background="new 0 0 80 800"
	 xml:space="preserve">
<defs>
</defs>
<path d="M36.845,35.442c-0.069,0.208-0.22,0.29-0.452,0.243c-0.672-0.139-1.124,0-1.354,0.417c-0.625,1.135-1.32,2.235-2.084,3.3
	v4.655c0,2.339,0.041,4.846,0.122,7.52c0.081,2.675,0.122,3.885,0.122,3.63c0,0.208-0.179,0.4-0.538,0.573
	c-0.359,0.174-0.771,0.26-1.233,0.26c-0.486,0-0.729-0.197-0.729-0.591c0,0.301,0.046-0.955,0.139-3.769
	c0.092-2.814,0.139-5.355,0.139-7.625v-2.084c-1.992,2.385-4.227,4.539-6.704,6.461c-0.348-0.023-0.499-0.197-0.452-0.521
	c1.991-1.991,3.797-4.156,5.419-6.496c1.713-2.478,2.929-4.736,3.647-6.774c0.023-0.417,0.127-0.891,0.312-1.424
	c0.092-0.046,0.22-0.035,0.382,0.035c0.973,0.486,2.015,1.054,3.126,1.702C36.892,35.072,36.938,35.233,36.845,35.442z
	 M55.117,28.877c0.139,0.162,0.208,0.324,0.208,0.486c0,0.278-0.139,0.417-0.417,0.417h-9.796c0.023,0.556,0.046,1.181,0.07,1.876
	c0.022,0.579,0.035,0.88,0.035,0.903c0,0.208-0.174,0.394-0.521,0.556c-0.348,0.162-0.753,0.243-1.216,0.243
	c-0.44,0-0.66-0.185-0.66-0.556V29.78h-6.635v2.466c0,0.208-0.186,0.394-0.556,0.556c-0.371,0.162-0.764,0.243-1.181,0.243
	c-0.44,0-0.66-0.174-0.66-0.521c0-0.116,0.035-1.03,0.104-2.744h-6.947c-0.301,0-0.915,0.058-1.841,0.174l-0.278-1.528
	c0.695,0.186,1.401,0.278,2.119,0.278h6.982c0.023-0.81,0.035-1.47,0.035-1.98c0-0.833-0.082-1.377-0.243-1.633
	c-0.093-0.139-0.104-0.254-0.035-0.347c0.092-0.092,0.208-0.127,0.348-0.104c1.204,0.208,2.315,0.451,3.334,0.729
	c0.208,0.047,0.301,0.186,0.278,0.417c-0.023,0.232-0.139,0.347-0.347,0.347c-0.741,0.069-1.112,0.336-1.112,0.799v1.771h6.635
	v-1.98c0-0.833-0.082-1.377-0.243-1.633c-0.093-0.139-0.093-0.254,0-0.347c0.069-0.092,0.185-0.127,0.348-0.104
	c1.204,0.208,2.315,0.451,3.334,0.729c0.208,0.047,0.301,0.186,0.278,0.417c-0.023,0.232-0.151,0.347-0.382,0.347
	c-0.742,0.069-1.112,0.336-1.112,0.799c0,0.533,0.011,1.124,0.035,1.771h5.21c0.162,0,0.29-0.046,0.382-0.139l1.598-1.598
	c0.185-0.185,0.394-0.196,0.625-0.035C53.819,27.673,54.561,28.321,55.117,28.877z M56.193,52.949c0,0.764-0.625,1.285-1.876,1.563
	c-1.111,0.231-2.917,0.394-5.418,0.486c-2.223,0.046-3.972,0.023-5.245-0.07c-1.598-0.139-2.397-0.776-2.397-1.91V36.171
	c0-0.833-0.082-1.377-0.243-1.633c-0.093-0.139-0.104-0.266-0.035-0.382c0.092-0.092,0.22-0.115,0.382-0.069
	c1.088,0.186,2.211,0.429,3.37,0.729c0.208,0.047,0.301,0.186,0.278,0.417c-0.023,0.232-0.151,0.359-0.382,0.382
	c-0.741,0.047-1.111,0.301-1.111,0.764v7.399c1.39-0.857,2.755-1.841,4.099-2.953c1.505-1.227,2.536-2.269,3.092-3.126
	c0.185-0.301,0.335-0.648,0.452-1.042c0.092-0.254,0.185-0.394,0.278-0.417c0.092-0.023,0.196,0.012,0.312,0.104
	c0.903,0.718,1.818,1.552,2.744,2.501c0.139,0.139,0.139,0.301,0,0.486c-0.139,0.186-0.312,0.22-0.521,0.104
	c-0.44-0.255-0.868-0.22-1.285,0.104c-2.617,2.015-5.674,3.798-9.17,5.349v6.774c0,0.625,0.405,0.985,1.216,1.077
	c0.695,0.093,1.794,0.104,3.3,0.035c1.667-0.046,2.791-0.15,3.37-0.313c0.579-0.162,0.973-0.498,1.181-1.007
	c0.324-0.833,0.764-2.536,1.32-5.106c0.301-0.208,0.532-0.162,0.695,0.139c0.022,0.232,0.011,1.013-0.035,2.345
	c-0.046,1.332-0.069,2.079-0.069,2.24c0,0.394,0.139,0.637,0.417,0.729C55.765,52.08,56.193,52.462,56.193,52.949z"/>
<path d="M29.585,131.568c-0.069,0.208-0.22,0.301-0.452,0.278c-0.463-0.07-0.753,0.104-0.868,0.521
	c-0.95,3.358-2.281,6.218-3.995,8.58c-0.348,0.092-0.556-0.023-0.625-0.347c1.459-3.242,2.35-6.206,2.675-8.893
	c-0.047-0.393-0.035-0.88,0.035-1.459c0.023-0.07,0.139-0.07,0.347,0c0.185,0.047,1.088,0.324,2.709,0.833
	C29.597,131.151,29.655,131.313,29.585,131.568z M37.366,127.087c0.139,0.394,0.208,0.741,0.208,1.042c0,0.371-0.11,0.701-0.33,0.99
	c-0.22,0.29-0.503,0.434-0.851,0.434c-0.324,0-0.573-0.295-0.747-0.886s-0.423-1.233-0.747-1.928
	c-0.788,0.162-1.702,0.347-2.744,0.556v5.488c0,1.459,0.029,3.381,0.087,5.766c0.058,2.385,0.087,3.543,0.087,3.474
	c0,0.185-0.162,0.376-0.486,0.573c-0.325,0.197-0.683,0.295-1.077,0.295c-0.486,0-0.729-0.174-0.729-0.521
	c0,0.116,0.046-1.124,0.139-3.717c0.092-2.593,0.139-4.55,0.139-5.87v-5.141c-1.39,0.255-2.443,0.417-3.161,0.486
	c-0.325,0.047-0.527,0.122-0.608,0.226c-0.082,0.104-0.122,0.319-0.122,0.643c0.023,0.232-0.069,0.371-0.278,0.417
	c-0.232,0.07-0.382,0-0.452-0.208c-0.278-0.625-0.718-1.574-1.32-2.848c-0.069-0.139-0.047-0.254,0.069-0.347
	c0.046-0.046,0.231-0.046,0.556,0c0.463,0.093,0.845,0.139,1.146,0.139c0.439,0.023,1.054,0.035,1.841,0.035
	c0.972-1.204,1.991-2.663,3.057-4.377c1.25-2.038,2.084-3.67,2.501-4.898c0.023-0.347,0.116-0.741,0.278-1.181
	c0.092-0.046,0.208-0.035,0.347,0.035c0.463,0.278,1.366,0.846,2.709,1.702c0.185,0.093,0.22,0.255,0.104,0.486
	c-0.093,0.186-0.255,0.255-0.486,0.208c-0.533-0.162-0.915-0.069-1.146,0.278c-1.367,2.154-3.462,4.736-6.287,7.746
	c2.13-0.023,3.948-0.092,5.454-0.208c-0.486-0.903-0.973-1.644-1.459-2.223c-0.023-0.347,0.139-0.521,0.486-0.521
	C35.583,124.435,36.856,125.721,37.366,127.087z M33.893,113.644c-0.093,0.208-0.255,0.278-0.486,0.208
	c-0.486-0.116-0.857,0.012-1.111,0.382c-0.973,1.274-2.131,2.594-3.474,3.96c0.903,0.857,1.354,1.714,1.354,2.57
	c0,0.347-0.104,0.683-0.312,1.008c-0.208,0.324-0.486,0.486-0.833,0.486c-0.278,0-0.51-0.254-0.695-0.764
	c-0.764-2.061-1.945-3.786-3.543-5.176c-0.047-0.347,0.104-0.532,0.451-0.556c1.204,0.649,2.177,1.262,2.918,1.841
	c1.065-1.852,1.829-3.474,2.292-4.863c0-0.394,0.07-0.81,0.208-1.25c0.092-0.07,0.208-0.07,0.348,0
	c0.787,0.44,1.702,0.996,2.744,1.667C33.939,113.274,33.985,113.436,33.893,113.644z M37.297,133.721
	c0.139,0.347,0.208,0.683,0.208,1.007c0,0.371-0.116,0.729-0.348,1.077c-0.231,0.347-0.533,0.521-0.903,0.521
	c-0.348,0-0.591-0.289-0.729-0.868c-0.44-1.968-1.25-3.774-2.432-5.419c0-0.347,0.174-0.509,0.521-0.486
	C35.444,130.711,36.671,132.101,37.297,133.721z M56.437,138.307c-1.25,0.278-2.235,0.868-2.953,1.771
	c-3.751-3.242-6.137-7.306-7.156-12.192v1.494c0,1.575,0.041,3.584,0.122,6.027c0.081,2.444,0.122,3.699,0.122,3.769
	c0,1.019-0.238,1.812-0.712,2.379c-0.475,0.567-1.268,1.001-2.379,1.302c-0.278-0.903-0.643-1.54-1.094-1.91
	c-0.452-0.371-1.176-0.613-2.171-0.729c-0.208-0.301-0.163-0.544,0.139-0.729c1.459,0.186,2.593,0.278,3.404,0.278
	c0.532,0,0.799-0.266,0.799-0.799v-4.412c-2.223,1.83-4.227,3.312-6.009,4.446c-0.394,0.255-0.486,0.603-0.278,1.042
	c0.092,0.208,0.058,0.37-0.104,0.486c-0.186,0.162-0.359,0.162-0.521,0c-0.556-0.578-1.32-1.377-2.292-2.397
	c-0.116-0.115-0.151-0.22-0.104-0.312c0.022-0.092,0.266-0.174,0.729-0.243c0.579-0.092,0.879-0.15,0.903-0.174
	c1.968-0.695,4.527-1.98,7.677-3.856v-8.753H38.93c-0.301,0-0.916,0.058-1.841,0.174l-0.278-1.494
	c0.695,0.162,1.401,0.255,2.119,0.278h9.865v-4.238h-7.989c-0.301,0-0.915,0.058-1.841,0.174l-0.278-1.494
	c0.717,0.162,1.424,0.255,2.119,0.278h7.989v-4.099l-8.962,0.035c-0.301,0-0.915,0.058-1.841,0.174l-0.278-1.529
	c0.694,0.186,1.401,0.278,2.119,0.278h8.476c0.139,0,0.255-0.046,0.348-0.139c0.37-0.394,0.683-0.706,0.938-0.938
	c0.185-0.208,0.394-0.22,0.625-0.035c0.439,0.324,1.019,0.811,1.737,1.459c0.278,0.255,0.254,0.464-0.069,0.625
	c-0.186,0.093-0.452,0.232-0.799,0.417c-0.186,0.093-0.278,0.255-0.278,0.486v8.545h1.181c0.139,0,0.266-0.057,0.382-0.174
	c0.278-0.324,0.625-0.706,1.042-1.146c0.208-0.231,0.428-0.243,0.66-0.035c0.139,0.116,0.695,0.614,1.667,1.494
	c0.162,0.139,0.243,0.301,0.243,0.486c0,0.278-0.139,0.417-0.417,0.417h-9.066c0.278,2.223,0.903,4.238,1.876,6.044
	c1.458-1.25,2.523-2.443,3.195-3.578c0.116-0.394,0.313-0.81,0.591-1.25c0.092-0.046,0.196-0.023,0.312,0.069
	c0.787,0.603,1.575,1.262,2.362,1.98c0.162,0.162,0.174,0.336,0.035,0.521c-0.116,0.186-0.278,0.232-0.486,0.139
	c-0.486-0.208-0.892-0.174-1.216,0.104c-1.112,0.857-2.559,1.772-4.342,2.744C50.427,134.208,52.963,136.454,56.437,138.307z
	 M42.889,130.144c0.185,0.347,0.278,0.707,0.278,1.077c0,0.347-0.093,0.672-0.278,0.972c-0.186,0.301-0.44,0.452-0.764,0.452
	c-0.301,0-0.533-0.22-0.694-0.66c-0.718-1.853-1.749-3.323-3.092-4.412c-0.069-0.347,0.058-0.544,0.382-0.591
	C40.736,127.84,42.125,128.893,42.889,130.144z"/>
<path d="M55.603,210.061c0.139,0.139,0.208,0.301,0.208,0.486c0,0.277-0.127,0.417-0.382,0.417H26.32
	c-0.301,0-0.915,0.058-1.841,0.174l-0.312-1.494c0.718,0.162,1.436,0.255,2.154,0.278h12.574v-2.987h-8.892
	c-0.301,0-0.915,0.058-1.841,0.173l-0.278-1.493c0.718,0.162,1.424,0.255,2.119,0.277h8.892v-2.987H27.64
	c-0.301,0-0.915,0.059-1.841,0.174l-0.313-1.493c0.718,0.162,1.436,0.255,2.154,0.277h11.254v-1.459
	c0-0.833-0.081-1.377-0.243-1.632c-0.093-0.139-0.093-0.254,0-0.347c0.07-0.093,0.185-0.127,0.348-0.104
	c1.158,0.208,2.258,0.452,3.3,0.729c0.208,0.047,0.301,0.186,0.278,0.417c-0.023,0.231-0.151,0.348-0.382,0.348
	c-0.742,0.069-1.112,0.336-1.112,0.799v1.25h8.823c0.162,0,0.289-0.058,0.382-0.173c0.37-0.394,0.811-0.891,1.32-1.494
	c0.186-0.185,0.394-0.196,0.625-0.035c0.671,0.51,1.343,1.112,2.015,1.807c0.162,0.162,0.243,0.336,0.243,0.521
	c0,0.278-0.162,0.417-0.486,0.417H41.083v2.987h6.322c0.162,0,0.289-0.057,0.382-0.173c0.348-0.394,0.787-0.891,1.32-1.494
	c0.185-0.185,0.394-0.185,0.625,0c0.671,0.486,1.343,1.077,2.015,1.771c0.139,0.162,0.208,0.336,0.208,0.521
	c0,0.277-0.151,0.417-0.452,0.417H41.083v2.987h9.761c0.231,0,0.405-0.07,0.521-0.208c0.509-0.671,0.926-1.204,1.25-1.598
	c0.162-0.208,0.382-0.22,0.66-0.035C53.947,208.566,54.723,209.227,55.603,210.061z M50.184,214.09
	c0.301,0.255,0.254,0.486-0.139,0.694c-0.231,0.116-0.59,0.29-1.077,0.521c-0.186,0.116-0.278,0.324-0.278,0.625v3.265
	c0,0.903,0.022,2.195,0.069,3.874c0.046,1.679,0.069,2.6,0.069,2.761c0,1.019-0.249,1.824-0.747,2.414
	c-0.499,0.59-1.384,1.083-2.657,1.476c-0.394-1.065-0.88-1.783-1.459-2.153c-0.486-0.348-1.367-0.602-2.64-0.764
	c-0.208-0.301-0.174-0.533,0.104-0.695c1.713,0.139,3.08,0.208,4.099,0.208c0.671,0,1.007-0.243,1.007-0.729v-3.057H33.476v6.357
	c0,0.208-0.163,0.4-0.486,0.573c-0.325,0.173-0.729,0.26-1.216,0.26s-0.729-0.173-0.729-0.521c0,0.324,0.046-0.996,0.139-3.96
	c0.092-2.964,0.139-5.72,0.139-8.268c0-2.292-0.116-3.717-0.347-4.272c-0.07-0.162-0.07-0.278,0-0.348
	c0.115-0.115,0.243-0.127,0.382-0.034l2.64,1.389h11.81c0.162,0,0.29-0.046,0.382-0.139c0.231-0.277,0.567-0.683,1.007-1.216
	c0.185-0.231,0.428-0.243,0.729-0.034C49.038,213.129,49.79,213.72,50.184,214.09z M46.537,217.528v-2.778H33.476v2.778H46.537z
	 M46.537,221.488v-2.883H33.476v2.883H46.537z"/>
<path d="M36.497,292.001c-0.567,1.945-0.915,3.549-1.042,4.811c-0.023,0.278,0.081,0.608,0.313,0.99
	c0.058,0.104,0.086,0.22,0.086,0.348c0,0.451-0.214,0.677-0.643,0.677c-0.22,0-0.411-0.064-0.573-0.191
	c-0.95-0.741-1.424-2.113-1.424-4.116c0-1.123,0.194-2.48,0.582-4.073c0.388-1.592,0.582-2.643,0.582-3.152
	c0-0.394-0.156-0.799-0.469-1.216c0-0.081,0.023-0.147,0.069-0.199c0.046-0.052,0.104-0.072,0.174-0.061
	c0.382,0.208,0.7,0.486,0.955,0.833c0.301,0.394,0.452,0.788,0.452,1.182c0,0.347-0.127,0.88-0.382,1.598
	c-0.359,1.03-0.59,1.743-0.695,2.136c-0.254,0.972-0.382,1.928-0.382,2.866c0,0.833,0.11,1.447,0.33,1.841
	c0.058,0.104,0.115,0.156,0.173,0.156c0.07,0,0.122-0.058,0.157-0.174c0.532-1.794,1.001-3.259,1.407-4.394
	C36.341,291.792,36.451,291.839,36.497,292.001z M46.571,297.785c-0.139,0-0.284-0.058-0.434-0.174
	c-0.869-0.637-1.662-1.112-2.379-1.424c-0.186,1.309-1.054,2.009-2.605,2.102c-0.811,0.047-1.444-0.113-1.902-0.478
	s-0.668-0.854-0.634-1.468c0.023-0.463,0.254-0.854,0.695-1.172c0.44-0.318,1.007-0.478,1.702-0.478c0.532,0,1.083,0.046,1.65,0.139
	c-0.116-2.153-0.174-3.52-0.174-4.099v-0.452c-1.1,0.128-2.055,0.139-2.866,0.035c-0.486-0.069-0.875-0.281-1.164-0.634
	c-0.29-0.354-0.423-0.802-0.399-1.346c0.104-0.139,0.22-0.157,0.347-0.052c0.035,0.301,0.183,0.562,0.443,0.781
	c0.261,0.221,0.547,0.342,0.86,0.365c0.926,0.035,1.853-0.012,2.779-0.139v-2.588c0-0.347-0.055-0.556-0.165-0.625
	c-0.11-0.069-0.338-0.086-0.686-0.052c-0.127-0.127-0.133-0.249-0.017-0.365c0.486-0.139,0.99-0.145,1.511-0.017
	c0.475,0.127,0.712,0.364,0.712,0.712c0,0.046-0.058,0.18-0.174,0.399s-0.191,0.417-0.226,0.591
	c0.741,0.648,1.239,0.972,1.494,0.972c0.324,0,0.579,0.058,0.765,0.174c0.104,0.058,0.156,0.173,0.156,0.347
	c0,0.278-0.156,0.498-0.469,0.66c-0.498,0.278-1.175,0.492-2.032,0.643v0.573c0,0.903,0.052,1.777,0.156,2.623
	c0.081,0.579,0.162,1.164,0.243,1.754c1.053,0.301,1.985,0.7,2.796,1.198c0.336,0.22,0.504,0.498,0.504,0.833
	C47.057,297.564,46.895,297.785,46.571,297.785z M42.68,295.822c-0.579-0.15-1.152-0.226-1.719-0.226
	c-0.961,0-1.471,0.255-1.528,0.764c-0.046,0.348,0.069,0.599,0.347,0.756c0.278,0.156,0.718,0.217,1.32,0.182
	c0.382-0.023,0.729-0.17,1.042-0.443C42.455,296.583,42.634,296.239,42.68,295.822z M44.052,288.545
	c-0.104-0.139-0.318-0.382-0.643-0.729c-0.035,0.312-0.052,0.753-0.052,1.32c0.301-0.07,0.523-0.145,0.668-0.226
	C44.171,288.829,44.18,288.707,44.052,288.545z"/>
<path d="M40.735,322.045c0.15,0.116,0.226,0.249,0.226,0.399c0,0.174-0.099,0.301-0.295,0.382c-0.695,0.301-1.644,0.539-2.848,0.712
	c-0.44,1.216-0.979,2.548-1.615,3.995c-0.637,1.447-1.146,2.478-1.528,3.091c-0.128,0.22-0.319,0.33-0.573,0.33
	c-0.186,0-0.339-0.087-0.46-0.26c-0.122-0.174-0.182-0.359-0.182-0.556s0.069-0.382,0.208-0.556c1.343-1.737,2.425-3.717,3.248-5.94
	c-0.301,0.023-0.567,0.035-0.799,0.035c-0.625,0-1.112-0.191-1.459-0.573c-0.312-0.336-0.458-0.765-0.434-1.286
	c0.104-0.139,0.22-0.156,0.347-0.052c0.046,0.359,0.226,0.637,0.539,0.834c0.278,0.186,0.614,0.278,1.007,0.278
	c0.324,0,0.689-0.041,1.094-0.122c0.208-0.683,0.341-1.303,0.399-1.858c0.023-0.336-0.023-0.562-0.139-0.678
	c-0.069-0.069-0.26-0.121-0.573-0.156c-0.104-0.139-0.087-0.254,0.052-0.347c0.452-0.058,0.921,0.018,1.407,0.226
	c0.417,0.174,0.625,0.434,0.625,0.781c0,0.116-0.046,0.22-0.139,0.312c-0.243,0.209-0.399,0.446-0.469,0.712
	c-0.046,0.208-0.122,0.469-0.226,0.782c0.729-0.22,1.326-0.475,1.789-0.765C40.075,321.686,40.341,321.778,40.735,322.045z
	 M45.251,333.316c-0.104,0-0.22-0.052-0.348-0.156c-0.729-0.602-1.465-1.065-2.206-1.39c-0.197,1.344-1.037,2.061-2.519,2.154
	c-0.764,0.058-1.404-0.093-1.919-0.452c-0.516-0.358-0.755-0.833-0.721-1.424c0.023-0.521,0.26-0.947,0.712-1.276
	c0.452-0.33,1.03-0.495,1.737-0.495c0.509,0,1.042,0.046,1.598,0.139c0-0.069-0.017-0.596-0.052-1.58
	c-0.023-0.695-0.035-1.326-0.035-1.894c0-1.25,0.584-1.876,1.754-1.876c0.382,0,0.573-0.179,0.573-0.538
	c0-0.174-0.11-0.365-0.33-0.573c-0.22-0.208-0.486-0.353-0.799-0.434c-0.081-0.15-0.046-0.266,0.104-0.347
	c0.567,0.046,1.141,0.226,1.72,0.538c0.66,0.348,0.99,0.718,0.99,1.111c0,0.625-0.423,0.938-1.268,0.938
	c-0.116,0-0.267-0.006-0.452-0.018c-0.186-0.012-0.307-0.018-0.365-0.018c-0.452,0-0.773,0.087-0.964,0.261
	c-0.191,0.174-0.287,0.486-0.287,0.938c0,0.591,0.075,1.274,0.226,2.05c0.197,1.111,0.295,1.679,0.295,1.702
	c1.077,0.29,1.945,0.643,2.605,1.06c0.278,0.185,0.417,0.48,0.417,0.886C45.72,333.085,45.563,333.316,45.251,333.316z
	 M41.569,331.371c-0.544-0.139-1.088-0.208-1.633-0.208c-0.996,0-1.522,0.295-1.581,0.886c-0.035,0.312,0.104,0.55,0.417,0.712
	s0.764,0.22,1.355,0.174C40.996,332.877,41.476,332.355,41.569,331.371z"/>
<path d="M45.494,364.039c0,1.61-0.84,2.831-2.519,3.665c-1.205,0.602-2.588,0.92-4.151,0.955c-0.186-0.139-0.208-0.29-0.069-0.452
	c1.32-0.22,2.449-0.614,3.387-1.181c1.285-0.775,1.928-1.766,1.928-2.97c0-0.915-0.275-1.644-0.825-2.188
	c-0.55-0.544-1.294-0.816-2.231-0.816c-1.1,0-2.235,0.446-3.404,1.338c-1.123,0.868-1.945,1.875-2.466,3.021
	c-0.139,0.312-0.342,0.469-0.608,0.469c-0.208,0-0.388-0.089-0.539-0.269s-0.226-0.345-0.226-0.495c0-0.162,0.081-0.354,0.243-0.573
	c1.806-2.177,4-4.828,6.583-7.955c0.127-0.162,0.191-0.301,0.191-0.417c0-0.231-0.168-0.324-0.503-0.278
	c-0.927,0.15-1.749,0.504-2.466,1.06c-0.197,0.174-0.394,0.342-0.591,0.504c-0.231,0.173-0.48,0.26-0.747,0.26
	c-0.44,0-0.869-0.527-1.285-1.581c0.046-0.174,0.145-0.231,0.295-0.174c0.29,0.324,0.637,0.486,1.042,0.486
	c0.197,0,0.747-0.174,1.65-0.521c1.019-0.405,1.794-0.666,2.327-0.782c0.348-0.069,0.602-0.104,0.764-0.104
	c0.324,0,0.608,0.156,0.851,0.469c0.174,0.243,0.261,0.475,0.261,0.694c0,0.336-0.18,0.585-0.539,0.747
	c-0.892,0.405-2.495,2.084-4.811,5.037c1.447-1.111,2.773-1.667,3.978-1.667c1.343,0,2.414,0.307,3.213,0.921
	C45.071,361.903,45.494,362.835,45.494,364.039z"/>
<path d="M42.194,390.751c-0.046,0.197-0.295,0.486-0.747,0.869c-0.533,0.463-1.858,1.882-3.978,4.255
	c-0.243,0.278-0.365,0.51-0.365,0.695c0.012,0.22,0.214,0.51,0.608,0.869c0.764,0.694,1.529,1.476,2.293,2.345
	c0.938,1.077,1.569,1.951,1.893,2.622c0.104,0.232,0.156,0.469,0.156,0.712c0,0.231-0.058,0.446-0.174,0.643
	c-0.127,0.243-0.301,0.365-0.521,0.365c-0.162,0-0.307-0.133-0.434-0.399c-1.367-2.709-2.768-4.771-4.203-6.183
	c-0.208-0.22-0.336-0.359-0.382-0.417c-0.081-0.128-0.122-0.296-0.122-0.504c-0.012-0.336,0.174-0.695,0.556-1.077
	c0.382-0.382,0.975-1.082,1.78-2.102c0.804-1.019,1.392-1.829,1.763-2.432c0.208-0.335,0.312-0.625,0.312-0.868
	c0-0.278-0.133-0.521-0.399-0.729c-0.023-0.185,0.052-0.283,0.226-0.295c0.452,0.162,0.915,0.446,1.39,0.851
	C42.125,390.213,42.24,390.474,42.194,390.751z"/>
<path d="M45.407,435.457c-0.625,0.579-1.453,1.106-2.484,1.581c-1.273,0.59-2.472,0.886-3.595,0.886
	c-1.25,0-2.148-0.254-2.692-0.764c-0.637-0.602-0.955-1.679-0.955-3.23c0-0.787,0.052-2.133,0.156-4.038
	c0.104-1.904,0.156-3.06,0.156-3.465c0-0.764-0.197-1.228-0.59-1.39c-0.082-0.15-0.041-0.26,0.122-0.33
	c0.775,0.151,1.337,0.394,1.685,0.729c0.22,0.232,0.33,0.475,0.33,0.729c0,0.128-0.023,0.243-0.07,0.348
	c-0.162,0.324-0.307,1.146-0.434,2.466c-0.139,1.482-0.208,3.133-0.208,4.95c0,1.007,0.194,1.734,0.582,2.18
	c0.388,0.446,1.01,0.669,1.867,0.669c1.841,0,3.792-0.567,5.853-1.702C45.361,435.11,45.453,435.237,45.407,435.457z"/>
<path d="M45.338,470.228c-0.058,0.232-0.186,0.347-0.382,0.347c-0.104,0-0.214-0.04-0.33-0.121
	c-0.648-0.463-1.459-0.874-2.432-1.233c-0.231,1.077-0.996,1.645-2.292,1.702c-0.648,0.023-1.189-0.11-1.624-0.399
	c-0.434-0.289-0.651-0.671-0.651-1.146c0-0.394,0.182-0.715,0.547-0.964s0.86-0.373,1.485-0.373c0.486,0,1.036,0.058,1.65,0.173
	c-0.058-0.648-0.116-1.291-0.173-1.928c-0.082-0.95-0.122-1.719-0.122-2.31c0-0.845,0.023-1.517,0.069-2.015
	c0.035-0.348-0.023-0.556-0.174-0.625c-0.104-0.046-0.272-0.058-0.503-0.035c-0.104-0.092-0.11-0.185-0.018-0.278
	c0.348-0.092,0.741-0.092,1.181,0c0.428,0.093,0.643,0.267,0.643,0.521c0,0.093-0.035,0.186-0.104,0.278
	c-0.243,0.301-0.382,0.712-0.417,1.233c-0.012,0.29,0.202,0.434,0.643,0.434c0.59,0,1.117-0.115,1.581-0.348
	c0.15-0.069,0.318-0.04,0.503,0.087c0.243,0.163,0.365,0.319,0.365,0.469c0,0.163-0.156,0.287-0.469,0.374s-0.666,0.13-1.06,0.13
	c-0.533,0-0.984-0.069-1.354-0.208c-0.151-0.058-0.226-0.029-0.226,0.087c0,0.938,0.081,1.853,0.243,2.744
	c0.104,0.532,0.208,1.065,0.313,1.598c1.134,0.29,2.038,0.614,2.709,0.973C45.274,469.568,45.407,469.846,45.338,470.228z
	 M41.291,468.926c-0.614-0.162-1.164-0.243-1.65-0.243c-0.88,0-1.32,0.22-1.32,0.66c0,0.475,0.521,0.689,1.563,0.643
	C40.671,469.95,41.14,469.597,41.291,468.926z"/>
<path d="M43.323,501.72c0,1.899-0.799,3.41-2.396,4.533c-1.124,0.788-2.536,1.326-4.238,1.615c-0.186-0.128-0.214-0.278-0.087-0.452
	c1.667-0.475,2.935-1.1,3.804-1.875c1.065-0.984,1.598-2.264,1.598-3.839c0-2.211-0.527-3.317-1.581-3.317
	c-0.428,0-1.033,0.368-1.815,1.103c-0.781,0.735-1.357,1.103-1.728,1.103c-0.59,0-0.95-0.289-1.077-0.868
	c-0.081-0.429-0.018-0.862,0.191-1.303c0.15-0.093,0.266-0.063,0.347,0.087c-0.012,0.046-0.017,0.093-0.017,0.139
	c0,0.162,0.061,0.304,0.182,0.426s0.263,0.183,0.426,0.183c0.278,0,0.805-0.264,1.581-0.791c0.775-0.527,1.412-0.791,1.91-0.791
	C42.356,497.673,43.323,499.022,43.323,501.72z M41.36,495.12c0.104,0.174,0.156,0.336,0.156,0.486c0,0.231-0.11,0.33-0.33,0.295
	c-0.139-0.011-0.278-0.017-0.417-0.017c-0.579,0-1.355,0.249-2.328,0.747c-0.173-0.035-0.237-0.133-0.191-0.295
	c0.428-0.324,0.828-0.579,1.198-0.765c-1.25-0.104-1.957-0.851-2.119-2.24c0.092-0.139,0.208-0.162,0.347-0.069
	c0.127,0.44,0.426,0.772,0.895,0.999s1.022,0.316,1.659,0.269C40.718,494.483,41.094,494.68,41.36,495.12z"/>
<rect fill="none" width="80" height="800"/>
<rect id="_x3C_スライス_x3E__5_" fill="none" width="80" height="800"/>
</svg>
