<?xml version="1.0" encoding="utf-8"?>
<!-- Generator: Adobe Illustrator 15.1.0, SVG Export Plug-In  -->
<!DOCTYPE svg PUBLIC "-//W3C//DTD SVG 1.1//EN" "http://www.w3.org/Graphics/SVG/1.1/DTD/svg11.dtd" [
	<!ENTITY ns_flows "http://ns.adobe.com/Flows/1.0/">
]>
<svg version="1.1"
	 xmlns="http://www.w3.org/2000/svg" xmlns:xlink="http://www.w3.org/1999/xlink" xmlns:a="http://ns.adobe.com/AdobeSVGViewerExtensions/3.0/"
	 x="0px" y="0px" width="81px" height="800px" viewBox="80 0 81 800" overflow="visible" enable-background="new 80 0 81 800"
	 xml:space="preserve">
<defs>
</defs>
<rect x="0.013" fill="none" width="80" height="800"/>
<path d="M120.688,38.446c0.278,0.255,0.231,0.463-0.139,0.625c-0.232,0.093-0.556,0.232-0.973,0.417
	c-0.116,0.07-0.174,0.255-0.174,0.556c0,5.836-0.359,9.738-1.077,11.706c-0.718,2.037-2.235,3.265-4.55,3.682
	c-0.255-0.857-0.591-1.459-1.007-1.806c-0.486-0.417-1.332-0.752-2.536-1.007c-0.186-0.324-0.128-0.556,0.173-0.695
	c1.876,0.347,3.288,0.452,4.238,0.313c0.996-0.139,1.679-1.1,2.05-2.883c0.393-1.898,0.59-5.349,0.59-10.351h-4.516
	c-0.325,7.781-3.126,13.455-8.406,17.021c-0.371,0-0.533-0.174-0.486-0.521c2.2-2.246,3.763-4.342,4.689-6.287
	c1.204-2.616,1.887-6.021,2.049-10.212h-3.334c-0.301,0-0.915,0.058-1.841,0.174l-0.278-1.529c0.718,0.186,1.424,0.278,2.119,0.278
	h3.369c0.023-0.44,0.035-0.903,0.035-1.39c0-1.528-0.151-2.605-0.451-3.23c-0.093-0.162-0.104-0.289-0.035-0.382
	c0.07-0.069,0.185-0.092,0.348-0.069c1.343,0.232,2.466,0.463,3.369,0.695c0.185,0.07,0.278,0.22,0.278,0.452
	c-0.023,0.208-0.151,0.324-0.382,0.347c-0.672,0.047-1.007,0.312-1.007,0.799v2.119c0,0.232,0,0.452,0,0.66h4.134
	c0.162,0,0.289-0.046,0.382-0.139c0.208-0.254,0.498-0.578,0.869-0.972c0.185-0.208,0.382-0.22,0.59-0.035
	C119.611,37.45,120.248,38.006,120.688,38.446z M135.52,29.102c0.139,0.139,0.208,0.301,0.208,0.486
	c0,0.278-0.127,0.417-0.382,0.417h-10.456c0.022,0.625,0.057,1.32,0.104,2.084c0.023,0.625,0.035,0.95,0.035,0.972
	c0,0.186-0.174,0.365-0.521,0.539c-0.347,0.174-0.741,0.26-1.181,0.26s-0.66-0.174-0.66-0.521v-3.335h-5.767v3.057
	c0,0.186-0.168,0.365-0.503,0.539c-0.336,0.174-0.724,0.26-1.164,0.26c-0.44,0-0.66-0.174-0.66-0.521
	c0-0.185,0.035-1.297,0.104-3.335h-8.302c-0.301,0-0.915,0.058-1.841,0.174l-0.278-1.494c0.717,0.186,1.424,0.278,2.119,0.278h8.337
	c0.022-1.019,0.035-1.69,0.035-2.015c0-0.81-0.082-1.343-0.243-1.598c-0.093-0.139-0.104-0.266-0.035-0.382
	c0.092-0.092,0.22-0.115,0.382-0.069c1.042,0.186,2.119,0.417,3.23,0.695c0.208,0.07,0.301,0.208,0.278,0.417
	c-0.023,0.232-0.139,0.359-0.347,0.382c-0.742,0.047-1.112,0.312-1.112,0.799v1.771h5.767v-2.015c0-0.81-0.082-1.343-0.243-1.598
	c-0.093-0.139-0.093-0.266,0-0.382c0.069-0.092,0.185-0.115,0.347-0.069c1.111,0.186,2.211,0.417,3.3,0.695
	c0.185,0.07,0.278,0.208,0.278,0.417c-0.023,0.232-0.151,0.359-0.382,0.382c-0.742,0.047-1.112,0.312-1.112,0.799
	c0,0.51,0.012,1.1,0.035,1.771h5.87c0.231,0,0.405-0.069,0.521-0.208c0.509-0.671,0.926-1.204,1.25-1.598
	c0.162-0.208,0.382-0.22,0.66-0.035C133.888,27.608,134.663,28.268,135.52,29.102z M135.068,37.16
	c0.301,0.278,0.266,0.51-0.104,0.695c-0.162,0.07-0.463,0.197-0.903,0.382c-0.186,0.093-0.278,0.301-0.278,0.625
	c0,2.501,0.041,5.668,0.122,9.5c0.081,3.833,0.122,5.61,0.122,5.332c0,0.208-0.18,0.405-0.538,0.591
	c-0.359,0.185-0.771,0.278-1.233,0.278c-0.44,0-0.66-0.174-0.66-0.521v-2.918h-6.426v3.682c0,0.208-0.18,0.4-0.539,0.573
	c-0.359,0.174-0.759,0.26-1.198,0.26c-0.44,0-0.66-0.186-0.66-0.556c0,0.046,0.023-0.649,0.069-2.084
	c0.023-1.69,0.058-3.416,0.104-5.176c0.022-2.547,0.035-5.152,0.035-7.816c0-2.339-0.139-3.809-0.417-4.411
	c-0.069-0.139-0.052-0.26,0.052-0.365c0.104-0.104,0.226-0.11,0.365-0.017c0.81,0.463,1.69,0.973,2.64,1.528h5.454
	c0.162,0,0.29-0.046,0.382-0.139c0.278-0.278,0.625-0.648,1.042-1.112c0.185-0.185,0.382-0.185,0.591,0
	C133.737,35.979,134.396,36.535,135.068,37.16z M131.595,50.082V37.786h-6.426v12.297H131.595z"/>
<path d="M135.485,126.158c0.139,0.139,0.208,0.301,0.208,0.486c0,0.301-0.127,0.452-0.382,0.452H121v1.667
	c0,2.131,0.035,4.261,0.104,6.391c0.07,2.131,0.104,3.092,0.104,2.883c0,2.177-1.25,3.67-3.751,4.481
	c-0.44-1.158-0.956-1.922-1.546-2.292s-1.604-0.648-3.04-0.834c-0.231-0.278-0.208-0.521,0.069-0.729
	c1.922,0.116,3.485,0.174,4.689,0.174c0.718,0,1.077-0.347,1.077-1.042v-10.699h-12.297c-0.301,0-0.915,0.058-1.841,0.174
	l-0.312-1.529c0.717,0.186,1.436,0.278,2.153,0.278h12.297v-4.099c0-0.833-0.082-1.366-0.243-1.598
	c-0.093-0.139-0.093-0.266,0-0.382c0.069-0.092,0.185-0.127,0.347-0.104c0.556,0.116,1.262,0.255,2.119,0.417
	c1.574-1.713,3.08-3.462,4.516-5.245h-15.875c-0.301,0-0.915,0.058-1.841,0.174l-0.313-1.494c0.718,0.162,1.436,0.255,2.154,0.278
	h15.77c0.139,0,0.278-0.046,0.417-0.139c0.324-0.254,0.856-0.636,1.598-1.146c0.255-0.185,0.521-0.174,0.799,0.035
	c0.579,0.464,1.459,1.274,2.64,2.432c0.185,0.186,0.197,0.417,0.035,0.695c-0.139,0.255-0.382,0.347-0.729,0.278
	c-0.857-0.185-1.621-0.081-2.292,0.312c-0.347,0.186-2.374,1.529-6.079,4.03c0.509,0.116,0.752,0.29,0.729,0.521
	c0,0.232-0.116,0.359-0.348,0.382c-0.741,0.047-1.111,0.313-1.111,0.799v3.856h9.17c0.162,0,0.289-0.046,0.382-0.139
	c0.44-0.486,0.984-1.112,1.633-1.876c0.185-0.208,0.405-0.231,0.66-0.069C133.841,124.653,134.721,125.394,135.485,126.158z"/>
<path d="M110.128,218.895c-0.069,0.208-0.22,0.29-0.452,0.243c-0.394-0.093-0.672,0.104-0.833,0.59
	c-1.089,3.15-2.594,5.94-4.516,8.372c-0.348,0.069-0.544-0.059-0.591-0.382c1.575-2.917,2.651-5.962,3.23-9.135
	c-0.046-0.417-0.023-0.88,0.07-1.39c0.069-0.069,0.185-0.069,0.347,0c0.556,0.231,1.112,0.463,1.667,0.694
	C109.885,218.281,110.244,218.616,110.128,218.895z M118.5,213.649c0.092,0.301,0.139,0.59,0.139,0.868
	c0,0.788-0.29,1.285-0.868,1.494c-0.51,0.186-0.833,0.012-0.973-0.521c-0.139-0.625-0.382-1.32-0.729-2.084l-3.196,0.59v5.905
	c0,1.622,0.035,3.556,0.104,5.801c0.069,2.246,0.104,3.311,0.104,3.196c0,0.208-0.168,0.399-0.503,0.573
	c-0.336,0.174-0.701,0.26-1.094,0.26c-0.486,0-0.729-0.208-0.729-0.625c0,0.186,0.029-0.868,0.087-3.161
	c0.057-2.292,0.086-4.284,0.086-5.975v-5.627l-3.474,0.625c-0.324,0.069-0.527,0.162-0.608,0.278
	c-0.081,0.116-0.099,0.371-0.052,0.764c0.022,0.232-0.058,0.382-0.243,0.452c-0.232,0.069-0.394,0.012-0.486-0.174
	c-0.047-0.115-0.486-1.146-1.32-3.092c-0.093-0.161-0.093-0.277,0-0.347c0.069-0.046,0.231-0.046,0.486,0
	c0.348,0.093,0.648,0.139,0.903,0.139c0.579,0.023,1.459,0.023,2.64,0c2.732-3.751,4.55-6.762,5.454-9.031
	c0.092-0.255,0.139-0.533,0.139-0.834c0-0.208,0.046-0.335,0.139-0.382c0.092-0.046,0.208-0.023,0.347,0.069
	c0.856,0.486,1.748,1.065,2.675,1.737c0.162,0.116,0.196,0.278,0.104,0.486c-0.093,0.208-0.255,0.278-0.486,0.208
	c-0.579-0.162-1.019-0.046-1.32,0.347c-1.297,1.76-3.277,4.215-5.94,7.364c2.084-0.069,4.018-0.173,5.801-0.312
	c-0.486-0.949-1.008-1.736-1.563-2.362c0-0.37,0.162-0.556,0.486-0.556C116.739,210.998,118.036,212.307,118.5,213.649z
	 M114.019,200.519c-0.069,0.186-0.22,0.255-0.452,0.209c-0.579-0.093-0.984,0.023-1.216,0.347c-0.95,1.343-2.142,2.756-3.578,4.238
	c0.926,0.927,1.389,1.818,1.389,2.675c0,0.371-0.099,0.724-0.295,1.06c-0.197,0.336-0.469,0.503-0.816,0.503
	c-0.232,0-0.417-0.185-0.556-0.556c-0.788-2.154-2.027-3.983-3.717-5.489c-0.023-0.37,0.127-0.556,0.451-0.556
	c1.204,0.625,2.177,1.239,2.918,1.841c1.227-2.13,2.026-3.833,2.397-5.106c0-0.417,0.081-0.869,0.243-1.355
	c0.092-0.07,0.208-0.07,0.347,0c0.856,0.463,1.771,1.031,2.744,1.702C114.041,200.148,114.088,200.311,114.019,200.519z
	 M118.917,222.993c0.069,0.255,0.104,0.51,0.104,0.764c0,0.996-0.371,1.563-1.112,1.702c-0.486,0.093-0.822-0.254-1.007-1.042
	c-0.602-2.571-1.598-4.782-2.987-6.635c0.07-0.347,0.266-0.486,0.591-0.417C117.029,219.242,118.5,221.117,118.917,222.993z
	 M136.284,206.667c0.162,0.163,0.243,0.336,0.243,0.521c0,0.277-0.162,0.417-0.486,0.417h-4.307v4.898
	c0,2.964,0.052,6.443,0.156,10.438c0.104,3.994,0.156,5.795,0.156,5.401c0,0.185-0.168,0.37-0.503,0.556
	c-0.336,0.185-0.735,0.278-1.199,0.278c-0.486,0-0.729-0.186-0.729-0.556v-2.084h-6.635v2.224c0,0.231-0.163,0.445-0.486,0.643
	c-0.325,0.196-0.753,0.295-1.285,0.295c-0.44,0-0.66-0.208-0.66-0.625c0,0.37,0.052-1.482,0.156-5.558
	c0.104-4.076,0.156-7.746,0.156-11.011v-4.898h-2.119c-0.301,0-0.927,0.058-1.876,0.174l-0.278-1.494
	c0.718,0.162,1.424,0.255,2.119,0.278h2.153v-5.662c0-0.834-0.081-1.378-0.243-1.633c-0.093-0.139-0.104-0.255-0.035-0.348
	c0.092-0.092,0.22-0.127,0.382-0.104c1.181,0.208,2.258,0.44,3.23,0.695c0.208,0.047,0.301,0.186,0.278,0.417
	c-0.023,0.208-0.151,0.324-0.382,0.347c-0.741,0.069-1.111,0.312-1.111,0.729v5.558h6.635v-5.662c0-0.834-0.082-1.378-0.243-1.633
	c-0.093-0.139-0.104-0.255-0.035-0.348c0.092-0.092,0.22-0.127,0.382-0.104c1.181,0.208,2.258,0.44,3.23,0.695
	c0.208,0.047,0.301,0.186,0.278,0.417c-0.023,0.208-0.151,0.324-0.382,0.347c-0.742,0.069-1.112,0.312-1.112,0.729v5.558h0.486
	c0.139,0,0.254-0.058,0.347-0.173c0.37-0.371,0.787-0.811,1.25-1.32c0.185-0.208,0.394-0.22,0.625-0.035
	C135.045,205.498,135.659,206.042,136.284,206.667z M129.615,215.803v-8.198h-6.635v8.198H129.615z M129.615,225.494v-8.649h-6.635
	v8.649H129.615z"/>
<path d="M120.722,287.309c0.15,0.116,0.226,0.249,0.226,0.399c0,0.174-0.099,0.301-0.295,0.382
	c-0.695,0.301-1.644,0.539-2.848,0.712c-0.44,1.216-0.979,2.548-1.615,3.995c-0.637,1.447-1.146,2.478-1.528,3.091
	c-0.128,0.22-0.319,0.33-0.573,0.33c-0.186,0-0.339-0.087-0.46-0.26c-0.122-0.174-0.182-0.359-0.182-0.556s0.069-0.382,0.208-0.556
	c1.343-1.737,2.425-3.717,3.248-5.94c-0.301,0.023-0.567,0.035-0.799,0.035c-0.625,0-1.112-0.191-1.459-0.573
	c-0.312-0.336-0.458-0.765-0.434-1.286c0.104-0.139,0.22-0.156,0.347-0.052c0.046,0.359,0.226,0.637,0.539,0.834
	c0.278,0.186,0.614,0.278,1.007,0.278c0.324,0,0.689-0.041,1.094-0.122c0.208-0.683,0.341-1.303,0.399-1.858
	c0.023-0.336-0.023-0.562-0.139-0.678c-0.069-0.069-0.26-0.121-0.573-0.156c-0.104-0.139-0.087-0.254,0.052-0.347
	c0.452-0.058,0.921,0.018,1.407,0.226c0.417,0.174,0.625,0.434,0.625,0.781c0,0.116-0.046,0.22-0.139,0.312
	c-0.243,0.209-0.399,0.446-0.469,0.712c-0.046,0.208-0.122,0.469-0.226,0.782c0.729-0.22,1.326-0.475,1.789-0.765
	C120.062,286.95,120.328,287.042,120.722,287.309z M125.238,298.58c-0.104,0-0.22-0.052-0.348-0.156
	c-0.729-0.602-1.465-1.065-2.206-1.39c-0.197,1.344-1.037,2.061-2.519,2.154c-0.764,0.058-1.404-0.093-1.919-0.452
	c-0.516-0.358-0.755-0.833-0.721-1.424c0.023-0.521,0.26-0.947,0.712-1.276c0.452-0.33,1.03-0.495,1.737-0.495
	c0.509,0,1.042,0.046,1.598,0.139c0-0.069-0.017-0.596-0.052-1.58c-0.023-0.695-0.035-1.326-0.035-1.894
	c0-1.25,0.584-1.876,1.754-1.876c0.382,0,0.573-0.179,0.573-0.538c0-0.174-0.11-0.365-0.33-0.573
	c-0.22-0.208-0.486-0.353-0.799-0.434c-0.081-0.15-0.046-0.266,0.104-0.347c0.567,0.046,1.141,0.226,1.72,0.538
	c0.66,0.348,0.99,0.718,0.99,1.111c0,0.625-0.423,0.938-1.268,0.938c-0.116,0-0.267-0.006-0.452-0.018
	c-0.186-0.012-0.307-0.018-0.365-0.018c-0.452,0-0.773,0.087-0.964,0.261c-0.191,0.174-0.287,0.486-0.287,0.938
	c0,0.591,0.075,1.274,0.226,2.05c0.197,1.111,0.295,1.679,0.295,1.702c1.077,0.29,1.945,0.643,2.605,1.06
	c0.278,0.185,0.417,0.48,0.417,0.886C125.707,298.349,125.55,298.58,125.238,298.58z M121.556,296.635
	c-0.544-0.139-1.088-0.208-1.633-0.208c-0.996,0-1.522,0.295-1.581,0.886c-0.035,0.312,0.104,0.55,0.417,0.712
	s0.764,0.22,1.355,0.174C120.982,298.141,121.463,297.619,121.556,296.635z"/>
<path d="M126.367,331.795c0.162,0.163,0.243,0.319,0.243,0.469s-0.067,0.263-0.2,0.338c-0.133,0.076-0.298,0.102-0.495,0.078
	c-0.88-0.15-1.888-0.226-3.022-0.226c-0.718,0-1.459,0.029-2.223,0.087v0.156c0,1.367,0.087,2.432,0.26,3.196
	c0.185,0.451,0.278,0.938,0.278,1.459c0,1.574-0.544,2.865-1.632,3.873c-0.707,0.648-1.731,1.216-3.074,1.702
	c-0.22-0.081-0.29-0.22-0.208-0.417c1.957-0.996,3.132-2.217,3.526-3.665c-0.174,0.047-0.365,0.069-0.573,0.069
	c-0.498,0-0.816-0.162-0.955-0.486c-0.081-0.185-0.255-0.445-0.521-0.781c-0.22-0.266-0.359-0.544-0.417-0.834
	c-0.046-0.243-0.069-0.469-0.069-0.677c0-0.973,0.452-1.563,1.354-1.771c0.417-0.093,0.828-0.012,1.233,0.243
	c-0.035-0.903-0.052-1.529-0.052-1.876v-0.104c-1.297,0.128-2.507,0.33-3.63,0.608c-0.139,0.035-0.463,0.139-0.973,0.313
	c-0.382,0.139-0.677,0.208-0.886,0.208c-0.857,0-1.413-0.648-1.667-1.945c0.081-0.162,0.197-0.202,0.348-0.121
	c0.185,0.498,0.636,0.747,1.354,0.747c0.637,0,1.494-0.069,2.57-0.208c0.961-0.115,1.922-0.237,2.883-0.365
	c-0.012-1.32-0.006-2.09,0.017-2.31c0.035-0.324-0.017-0.532-0.156-0.625c-0.093-0.058-0.278-0.075-0.556-0.052
	c-0.127-0.127-0.133-0.249-0.017-0.365c0.428-0.127,0.874-0.127,1.337,0c0.197,0.047,0.371,0.142,0.521,0.287
	c0.15,0.145,0.226,0.292,0.226,0.443c0,0.058-0.055,0.194-0.165,0.408c-0.11,0.214-0.177,0.374-0.2,0.478
	c-0.081,0.348-0.127,0.892-0.139,1.633c0.579-0.058,1.094-0.099,1.546-0.122c0.081,0,0.127-0.029,0.139-0.087
	c0-0.046-0.046-0.098-0.139-0.156s-0.469-0.266-1.129-0.625c-0.046-0.174,0.011-0.278,0.174-0.312
	c0.405,0.174,1.053,0.405,1.945,0.695c0.486,0.116,1.001,0.151,1.545,0.104C125.417,331.211,125.95,331.39,126.367,331.795z
	 M119.94,336.745v-0.156c-0.151-1.065-0.521-1.54-1.112-1.424c-0.498,0.104-0.747,0.423-0.747,0.955
	c0,0.174,0.023,0.376,0.069,0.608c0.197,0.788,0.591,1.129,1.181,1.025c0.266-0.058,0.446-0.174,0.539-0.348
	C119.929,337.278,119.952,337.058,119.94,336.745z"/>
<path d="M124.282,383.226c0.324,0.197,0.486,0.394,0.486,0.591c0,0.22-0.185,0.388-0.556,0.503
	c-1.332,0.382-2.877,0.573-4.637,0.573c-1.586,0-2.779-0.301-3.578-0.903c-0.684-0.498-1.025-1.152-1.025-1.962
	c0-0.394,0.087-0.782,0.26-1.164c0.208-0.092,0.354-0.034,0.435,0.174c-0.058,0.22-0.087,0.423-0.087,0.608
	c0,1.331,1.36,1.997,4.082,1.997c1.273,0,2.495-0.197,3.665-0.591c0.139-0.046,0.249-0.069,0.33-0.069
	C123.784,382.982,123.993,383.063,124.282,383.226z M122.85,374.698c0.226,0.254,0.338,0.469,0.338,0.643
	c0,0.277-0.243,0.417-0.729,0.417c-0.927,0-1.627,0.035-2.102,0.104c-0.846,0.104-1.575,0.336-2.188,0.695
	c-0.174-0.046-0.238-0.15-0.191-0.313c0.37-0.278,0.77-0.55,1.198-0.816c-0.741-0.104-1.303-0.232-1.685-0.382
	c-0.765-0.313-1.181-0.776-1.25-1.39c0.104-0.15,0.22-0.173,0.347-0.069c0.174,0.614,1.175,0.92,3.004,0.92
	c0.313,0,0.753-0.032,1.32-0.096c0.567-0.063,0.978-0.095,1.233-0.095C122.389,374.316,122.624,374.443,122.85,374.698z"/>
<path d="M126.679,426.183c-0.243,0.567-0.677,1.175-1.303,1.823c-0.915,0.961-1.835,1.441-2.761,1.441
	c-1.413,0-2.119-0.648-2.119-1.945c0-0.139,0.006-0.283,0.018-0.434c0.104-0.915,0.191-1.789,0.26-2.623
	c0.104-1.331-0.458-1.997-1.685-1.997c-0.718,0-1.424,0.255-2.119,0.764c-0.764,0.567-1.291,1.297-1.58,2.188
	c-0.325,1.019-0.539,2.038-0.643,3.057c-0.035,0.394-0.232,0.59-0.591,0.59c-0.139,0-0.267-0.04-0.382-0.121
	c-0.255-0.197-0.382-0.423-0.382-0.678c0-0.093,0.011-0.196,0.035-0.312c0.312-1.517,1.036-3.369,2.171-5.558
	c0.869-1.702,1.824-3.306,2.866-4.811c0.22-0.324,0.33-0.631,0.33-0.92c0-0.29-0.11-0.55-0.33-0.782
	c0-0.185,0.081-0.278,0.243-0.278c0.324,0.174,0.637,0.411,0.938,0.712c0.359,0.359,0.539,0.689,0.539,0.99
	c0,0.243-0.133,0.44-0.399,0.59c-0.521,0.278-1.21,1.083-2.067,2.414c-0.637,0.984-1.198,1.962-1.685,2.935
	c0.347-0.405,0.825-0.758,1.433-1.059s1.172-0.452,1.693-0.452c2.015,0,2.953,0.932,2.814,2.796
	c-0.035,0.371-0.11,1.205-0.226,2.501c-0.069,0.799,0.254,1.198,0.973,1.198c1.343,0,2.53-0.758,3.561-2.275
	C126.511,425.881,126.645,425.962,126.679,426.183z"/>
<rect x="80.026" fill="none" width="80" height="800"/>
<rect id="_x3C_スライス_x3E__6_" fill="none" width="81" height="800"/>
<rect id="_x3C_スライス_x3E__5_" x="80" fill="none" width="81" height="800"/>
</svg>
