<?xml version="1.0" encoding="utf-8"?>
<!-- Generator: Adobe Illustrator 15.1.0, SVG Export Plug-In  -->
<!DOCTYPE svg PUBLIC "-//W3C//DTD SVG 1.1//EN" "http://www.w3.org/Graphics/SVG/1.1/DTD/svg11.dtd" [
	<!ENTITY ns_flows "http://ns.adobe.com/Flows/1.0/">
]>
<svg version="1.1"
	 xmlns="http://www.w3.org/2000/svg" xmlns:xlink="http://www.w3.org/1999/xlink" xmlns:a="http://ns.adobe.com/AdobeSVGViewerExtensions/3.0/"
	 x="0px" y="0px" width="80px" height="800px" viewBox="0 0 80 800" overflow="visible" enable-background="new 0 0 80 800"
	 xml:space="preserve">
<defs>
</defs>
<path d="M55.59,40.444c0.162,0.162,0.243,0.336,0.243,0.521c0,0.278-0.163,0.417-0.486,0.417h-4.481
	c-0.788,3.15-1.958,5.766-3.509,7.85c2.895,1.112,5.002,2.223,6.322,3.335c0.556,0.44,0.833,1.053,0.833,1.841
	c0,0.926-0.301,1.389-0.903,1.389c-0.255,0-0.695-0.278-1.32-0.834c-2.015-1.76-4.053-3.219-6.113-4.377
	c-3.011,3.172-7.376,4.863-13.096,5.072c-0.255-0.232-0.267-0.463-0.035-0.695c5.187-0.787,8.973-2.558,11.359-5.314
	c-1.575-0.764-3.173-1.378-4.794-1.841c-0.44,0.903-0.707,1.465-0.799,1.685c-0.093,0.22-0.359,0.354-0.799,0.4
	c-0.417,0.023-0.788-0.04-1.112-0.191c-0.324-0.15-0.486-0.341-0.486-0.573c0-0.092,0.035-0.185,0.104-0.278
	c0.625-0.903,1.98-3.392,4.064-7.468h-3.96c0.07,0.255,0.104,0.521,0.104,0.799c0,1.019-0.336,1.61-1.007,1.771
	c-0.464,0.116-0.88-0.324-1.25-1.32c-0.718-1.968-1.667-3.462-2.849-4.481v6.392c0,2.061,0.029,4.406,0.087,7.034
	c0.058,2.628,0.087,3.838,0.087,3.63c0,0.208-0.186,0.4-0.556,0.573c-0.371,0.174-0.764,0.26-1.181,0.26
	c-0.486,0-0.729-0.197-0.729-0.591c0,0.231,0.052-1.048,0.156-3.838c0.104-2.79,0.156-5.146,0.156-7.069V39.61
	c-1.505,3.729-3.393,6.901-5.662,9.518c-0.347,0.047-0.533-0.104-0.556-0.452c2.825-4.516,4.816-9.529,5.975-15.041h-2.883
	c-0.301,0-0.915,0.058-1.841,0.174l-0.278-1.528c0.718,0.186,1.424,0.29,2.119,0.313h3.126v-5.871c0-0.833-0.082-1.377-0.243-1.633
	c-0.093-0.139-0.104-0.254-0.035-0.347c0.092-0.092,0.22-0.127,0.382-0.104c0.995,0.186,2.026,0.429,3.091,0.729
	c0.208,0.047,0.301,0.186,0.278,0.417c-0.023,0.232-0.151,0.347-0.382,0.347c-0.742,0.069-1.112,0.336-1.112,0.799v5.662h1.424
	c0.162,0,0.289-0.058,0.382-0.174l1.042-1.146c0.208-0.208,0.428-0.22,0.66-0.035c0.348,0.232,0.903,0.729,1.667,1.494
	c0.139,0.139,0.208,0.301,0.208,0.486c0,0.278-0.127,0.417-0.382,0.417h-5.002v3.682c0.023,0,0.046-0.011,0.069-0.035
	c1.992,0.903,3.439,1.923,4.342,3.057h5.071c1.065-2.13,1.673-3.444,1.824-3.943c0.15-0.498,0.249-1.013,0.295-1.546
	c0.023-0.37,0.069-0.579,0.139-0.625c0.116-0.07,0.231-0.07,0.348,0c0.856,0.44,1.841,1.007,2.953,1.702
	c0.185,0.116,0.231,0.278,0.139,0.486c-0.093,0.208-0.255,0.29-0.486,0.243c-0.579-0.139-1.031,0.058-1.354,0.591
	c-0.186,0.324-0.718,1.355-1.598,3.092h7.92c0.162,0,0.278-0.046,0.348-0.139c0.37-0.417,0.81-0.926,1.32-1.529
	c0.185-0.185,0.394-0.185,0.625,0C54.246,39.158,54.917,39.749,55.59,40.444z M41.139,32.767c0,0.996-0.347,1.586-1.042,1.771
	c-0.509,0.116-0.88-0.185-1.111-0.903c-0.903-2.871-2.049-4.99-3.439-6.357c-0.047-0.347,0.104-0.532,0.452-0.556
	c1.134,0.51,2.234,1.332,3.3,2.466C40.525,30.509,41.139,31.702,41.139,32.767z M48.295,41.382h-5.454
	c-1.019,2.015-1.957,3.891-2.813,5.627c1.713,0.371,3.474,0.868,5.28,1.494C46.581,46.65,47.577,44.277,48.295,41.382z
	 M46.593,31.03c0,1.135-0.429,1.76-1.285,1.876c-0.556,0.093-0.892-0.231-1.007-0.973c-0.394-2.501-1.262-4.562-2.605-6.183
	c0-0.347,0.173-0.509,0.521-0.486c1.088,0.625,2.049,1.424,2.883,2.397C46.095,28.842,46.593,29.965,46.593,31.03z M55.312,27.626
	c-0.046,0.208-0.186,0.301-0.417,0.278c-0.625-0.046-1.02,0.127-1.181,0.521c-0.672,1.575-1.563,3.265-2.675,5.072
	c-1.111,1.806-2.096,3.208-2.953,4.203c-0.347,0.093-0.556-0.023-0.625-0.347c0.717-1.273,1.447-2.836,2.188-4.689
	c0.856-2.223,1.377-4.006,1.563-5.349c0.046-0.347,0.046-0.729,0-1.146c-0.047-0.278-0.023-0.452,0.069-0.521
	c0.092-0.07,0.22-0.07,0.382,0c1.32,0.533,2.466,1.031,3.439,1.494C55.289,27.233,55.358,27.395,55.312,27.626z"/>
<path d="M55.52,139.626c0,0.625-0.59,1.112-1.771,1.459c-2.177,0.648-6.322,0.973-12.436,0.973c-5.465,0-8.8-0.104-10.004-0.313
	c-0.788-0.162-1.349-0.434-1.685-0.816c-0.336-0.382-0.504-0.99-0.504-1.824v-15.666c-1.552,1.413-3.126,2.594-4.724,3.543
	c-0.347-0.069-0.475-0.266-0.382-0.59c4.585-3.844,7.919-8.07,10.004-12.679c0.278-0.625,0.439-1.192,0.486-1.702
	c0.022-0.37,0.081-0.579,0.173-0.625c0.116-0.07,0.243-0.07,0.382,0c1.297,0.718,2.327,1.343,3.091,1.876
	c0.185,0.116,0.231,0.278,0.139,0.486c-0.093,0.186-0.255,0.255-0.486,0.208c-0.579-0.116-1.007,0.058-1.285,0.521
	c-0.232,0.371-0.463,0.753-0.695,1.146h6.461c0.162,0,0.29-0.046,0.382-0.139c0.417-0.37,0.833-0.729,1.25-1.077
	c0.208-0.185,0.439-0.185,0.694,0c0.764,0.579,1.517,1.193,2.258,1.841c0.162,0.139,0.231,0.301,0.208,0.486
	c-0.046,0.186-0.151,0.29-0.312,0.313c-0.325,0.069-0.741,0.151-1.25,0.243c-0.394,0.093-0.799,0.324-1.216,0.695
	c-1.019,0.996-2.409,2.374-4.168,4.134h7.781c0.162,0,0.289-0.046,0.382-0.139c0.255-0.278,0.602-0.695,1.042-1.25
	c0.185-0.208,0.417-0.208,0.695,0c0.741,0.533,1.459,1.124,2.154,1.771c0.301,0.278,0.254,0.51-0.139,0.695
	c-0.208,0.093-0.544,0.232-1.007,0.417c-0.186,0.093-0.278,0.301-0.278,0.625c0,0.764,0.04,2.188,0.122,4.273
	c0.081,2.084,0.122,3.184,0.122,3.3c0,0.208-0.197,0.406-0.59,0.591c-0.394,0.186-0.834,0.278-1.32,0.278
	c-0.417,0-0.625-0.185-0.625-0.556v-1.181H31.274v7.399c0,0.648,0.335,1.065,1.007,1.25c0.856,0.232,3.89,0.347,9.101,0.347
	c4.886,0,8.012-0.255,9.379-0.764c0.486-0.185,0.869-0.567,1.146-1.146c0.417-0.856,0.903-2.558,1.459-5.106
	c0.3-0.208,0.543-0.162,0.729,0.139c-0.139,1.783-0.208,3.358-0.208,4.724c0,0.394,0.127,0.637,0.382,0.729
	C55.104,138.793,55.52,139.164,55.52,139.626z M42.494,116.666H35.13c-1.228,1.76-2.628,3.439-4.203,5.037l0.66,0.417h7.468
	C40.491,119.989,41.637,118.171,42.494,116.666z M38.743,129.9v-6.739h-7.468v6.739H38.743z M48.469,129.9v-6.739h-7.434v6.739
	H48.469z"/>
<path d="M44.595,206.476c0,0.406-0.102,0.773-0.304,1.103s-0.466,0.518-0.79,0.564c-0.081,0.012-0.163,0.017-0.243,0.017
	c-0.278,0-0.567-0.122-0.869-0.365c-0.359-0.312-1.401-0.492-3.126-0.538c-0.88-0.012-1.615,0.15-2.206,0.486
	c-0.66,0.37-0.996,0.886-1.007,1.545c-0.012,0.486,0.261,0.863,0.816,1.129c0.509,0.266,1.198,0.405,2.067,0.417
	c0.833,0.023,1.656-0.058,2.466-0.243c0.289-0.058,0.538-0.017,0.747,0.122c0.29,0.208,0.435,0.429,0.435,0.66
	c0,0.243-0.151,0.399-0.452,0.469c-0.961,0.208-2.032,0.295-3.213,0.261c-1.389-0.035-2.426-0.33-3.109-0.886
	c-0.59-0.475-0.874-1.1-0.851-1.876c0.012-0.903,0.469-1.615,1.372-2.136c0.811-0.452,1.789-0.666,2.936-0.643
	c0.602,0.011,1.302,0.069,2.102,0.173c0.636,0.081,1.065,0.11,1.285,0.087c0.463-0.058,0.671-0.295,0.625-0.712
	c-0.069-0.544-0.388-1.105-0.955-1.685c-0.336-0.336-0.926-0.816-1.771-1.441c-1.077,0.347-2.2,0.562-3.37,0.643
	c-0.88,0.058-1.627-0.186-2.24-0.729c-0.394-0.348-0.689-0.77-0.886-1.268c0.081-0.162,0.197-0.203,0.347-0.122
	c0.486,0.892,1.395,1.291,2.727,1.198c0.891-0.046,1.73-0.179,2.518-0.399c-1.031-0.822-1.546-1.563-1.546-2.223
	c0-0.371,0.113-0.677,0.339-0.92c0.226-0.243,0.506-0.365,0.842-0.365c0.348,0,0.591,0.197,0.729,0.59
	c0.081,0.22-0.041,0.33-0.365,0.33c-0.208,0-0.312,0.133-0.312,0.399c0,0.648,0.388,1.292,1.164,1.928
	c0.602-0.231,1.03-0.463,1.285-0.694c0.081-0.069,0.072-0.136-0.026-0.2c-0.099-0.064-0.269-0.125-0.512-0.182
	c-0.104-0.14-0.082-0.255,0.069-0.348c0.452,0.058,0.897,0.041,1.337-0.052c0.197-0.046,0.422-0.017,0.677,0.087
	c0.22,0.104,0.33,0.243,0.33,0.417c0,0.174-0.116,0.354-0.348,0.539c-0.475,0.394-1.123,0.752-1.945,1.076
	c1.088,0.765,1.783,1.286,2.084,1.563C44.213,204.982,44.595,205.724,44.595,206.476z"/>
<path d="M42.181,234.438c-0.046,0.197-0.295,0.486-0.747,0.869c-0.533,0.463-1.858,1.882-3.978,4.255
	c-0.243,0.278-0.365,0.51-0.365,0.694c0.012,0.221,0.214,0.51,0.608,0.869c0.764,0.695,1.529,1.476,2.293,2.345
	c0.938,1.077,1.569,1.951,1.893,2.623c0.104,0.231,0.156,0.469,0.156,0.712c0,0.231-0.058,0.446-0.174,0.643
	c-0.127,0.243-0.301,0.365-0.521,0.365c-0.162,0-0.307-0.134-0.434-0.399c-1.367-2.71-2.768-4.771-4.203-6.184
	c-0.208-0.22-0.336-0.358-0.382-0.417c-0.081-0.127-0.122-0.295-0.122-0.503c-0.012-0.336,0.174-0.695,0.556-1.077
	c0.382-0.382,0.975-1.083,1.78-2.102c0.804-1.019,1.392-1.829,1.763-2.432c0.208-0.335,0.312-0.625,0.312-0.868
	c0-0.278-0.133-0.521-0.399-0.729c-0.023-0.185,0.052-0.284,0.226-0.295c0.452,0.163,0.915,0.446,1.39,0.851
	C42.111,233.9,42.227,234.161,42.181,234.438z"/>
<path d="M44.438,278.189c0,1.401-0.781,2.431-2.344,3.091c-1.042,0.452-2.333,0.706-3.874,0.765
	c-0.173-0.139-0.191-0.29-0.052-0.452c1.354-0.15,2.483-0.515,3.387-1.094c1.007-0.637,1.511-1.407,1.511-2.31
	c0-0.637-0.194-1.181-0.582-1.632c-0.388-0.452-0.883-0.678-1.485-0.678c-0.637,0-1.245,0.261-1.824,0.782
	c-0.406,0.359-0.741,0.793-1.007,1.302c-0.371,0.672-0.828,0.979-1.372,0.921c-0.845-0.081-1.268-0.712-1.268-1.894
	c0-0.37,0.093-1.117,0.278-2.24s0.278-1.985,0.278-2.588c0-0.231-0.006-0.445-0.017-0.643c-0.069-0.66,0.202-1.129,0.816-1.407
	c0.335-0.15,0.879-0.254,1.632-0.313c0.752-0.058,1.129-0.324,1.129-0.799c0-0.394-0.272-0.793-0.816-1.198
	c-0.023-0.185,0.046-0.283,0.208-0.295c0.521,0.162,1.019,0.445,1.494,0.851c0.567,0.486,0.851,0.961,0.851,1.424
	c0,0.371-0.156,0.643-0.469,0.816c-0.174,0.093-0.336,0.139-0.486,0.139c-0.116,0-0.356-0.075-0.721-0.226
	c-0.365-0.15-0.727-0.226-1.085-0.226c-1.135,0-1.702,0.313-1.702,0.938c0,0.139,0.017,0.347,0.052,0.625
	c0.035,0.278,0.052,0.486,0.052,0.625c0,0.545-0.072,1.26-0.217,2.146c-0.145,0.886-0.217,1.438-0.217,1.658
	c0,0.603,0.179,0.903,0.539,0.903c0.185,0,0.405-0.099,0.66-0.295c0.44-0.335,0.874-0.671,1.303-1.007
	c0.671-0.451,1.308-0.677,1.911-0.677c0.891,0,1.673,0.266,2.345,0.799C44.074,276.58,44.438,277.309,44.438,278.189z"/>
<path d="M38.447,310.132c-0.88,1.922-1.32,3.097-1.32,3.526c0,0.104,0.046,0.229,0.139,0.373c0.093,0.145,0.139,0.281,0.139,0.408
	c0.035,0.452-0.214,0.695-0.747,0.729c-0.671,0.046-1.256-0.341-1.754-1.164c-0.544-0.857-0.851-2.009-0.921-3.457
	c-0.011-0.266-0.017-0.544-0.017-0.833c0-0.359,0.014-0.869,0.043-1.528c0.029-0.66,0.043-1.158,0.043-1.494
	s-0.012-0.66-0.035-0.973c-0.023-0.452-0.157-0.811-0.4-1.077c0-0.069,0.023-0.13,0.07-0.182c0.046-0.052,0.104-0.072,0.173-0.061
	c0.892,0.452,1.361,1.002,1.407,1.65c0.023,0.348-0.012,0.874-0.104,1.58c-0.093,0.788-0.139,1.448-0.139,1.98
	c0,0.267,0.011,0.538,0.035,0.816c0.023,0.475,0.098,0.973,0.226,1.493c0.197,0.811,0.446,1.216,0.747,1.216
	c0.115,0,0.231-0.098,0.347-0.295c0.486-0.857,1.071-1.807,1.754-2.849C38.296,309.936,38.4,309.982,38.447,310.132z
	 M46.054,311.087c-0.011,0.232-0.101,0.443-0.269,0.634c-0.168,0.19-0.362,0.298-0.582,0.321c-0.371,0.046-0.568-0.15-0.591-0.591
	c-0.081-2.315-0.984-3.774-2.709-4.377c-0.081-0.15-0.052-0.266,0.087-0.347c1.146,0.127,2.122,0.617,2.927,1.467
	C45.721,309.047,46.1,310.011,46.054,311.087z"/>
<path d="M45.481,346.672c0,1.609-0.84,2.831-2.519,3.664c-1.205,0.603-2.588,0.921-4.151,0.956c-0.186-0.139-0.208-0.29-0.069-0.452
	c1.32-0.22,2.449-0.613,3.387-1.181c1.285-0.776,1.928-1.766,1.928-2.97c0-0.915-0.275-1.644-0.825-2.188
	c-0.55-0.544-1.294-0.816-2.231-0.816c-1.1,0-2.235,0.445-3.404,1.337c-1.123,0.869-1.945,1.876-2.466,3.022
	c-0.139,0.312-0.342,0.469-0.608,0.469c-0.208,0-0.388-0.09-0.539-0.27c-0.15-0.179-0.226-0.344-0.226-0.495
	c0-0.162,0.081-0.353,0.243-0.573c1.806-2.177,4-4.829,6.583-7.955c0.127-0.162,0.191-0.301,0.191-0.417
	c0-0.231-0.168-0.324-0.503-0.278c-0.927,0.151-1.749,0.503-2.466,1.06c-0.197,0.173-0.394,0.341-0.591,0.503
	c-0.231,0.174-0.48,0.261-0.747,0.261c-0.44,0-0.869-0.526-1.285-1.581c0.046-0.173,0.145-0.231,0.295-0.173
	c0.29,0.324,0.637,0.486,1.042,0.486c0.197,0,0.747-0.174,1.65-0.521c1.019-0.405,1.794-0.666,2.327-0.781
	c0.348-0.069,0.602-0.104,0.764-0.104c0.324,0,0.608,0.156,0.851,0.469c0.174,0.243,0.261,0.476,0.261,0.695
	c0,0.336-0.18,0.584-0.539,0.747c-0.892,0.406-2.495,2.084-4.811,5.037c1.447-1.111,2.773-1.667,3.978-1.667
	c1.343,0,2.414,0.307,3.213,0.92C45.058,344.535,45.481,345.468,45.481,346.672z"/>
<rect x="0.013" fill="none" width="80" height="800"/>
<rect id="_x3C_スライス_x3E__5_" fill="none" width="81" height="800"/>
</svg>
