<?xml version="1.0" encoding="utf-8"?>
<!-- Generator: Adobe Illustrator 15.1.0, SVG Export Plug-In  -->
<!DOCTYPE svg PUBLIC "-//W3C//DTD SVG 1.1//EN" "http://www.w3.org/Graphics/SVG/1.1/DTD/svg11.dtd" [
	<!ENTITY ns_flows "http://ns.adobe.com/Flows/1.0/">
]>
<svg version="1.1"
	 xmlns="http://www.w3.org/2000/svg" xmlns:xlink="http://www.w3.org/1999/xlink" xmlns:a="http://ns.adobe.com/AdobeSVGViewerExtensions/3.0/"
	 x="0px" y="0px" width="320px" height="320px" viewBox="0 0 320 320" overflow="visible" enable-background="new 0 0 320 320"
	 xml:space="preserve">
<defs>
</defs>
<path fill="#333333" d="M86.631,86.93v2.649c0,0.848-0.477,1.166-1.484,1.166c-0.742,0-0.954-0.265-0.954-0.954
	c0-2.066,0.212-6.359,0.212-18.389c0-11.235,0-14.097-0.265-16.322c0.901,0.371,2.014,0.901,2.65,1.431h3.71v-8.002h-4.293
	c-1.378,0-2.332,0.053-3.551,0.318l-0.477-2.014c1.272,0.317,2.385,0.371,4.027,0.371h14.679c1.802-2.12,1.908-2.172,2.173-2.172
	c0.212,0,0.371,0.053,2.491,1.749c1.007,0.794,1.06,1.007,1.06,1.272c0,0.265-0.159,0.477-0.689,0.477H97.76v8.002h3.869
	c1.113-1.166,1.219-1.219,1.431-1.219c0.159,0,0.318,0.053,1.537,1.007c0.689,0.583,0.742,0.795,0.742,1.007
	c0,0.318-0.159,0.53-1.219,1.219v12.242c0,12.771,0.265,16.64,0.265,18.282c0,0.795-0.477,1.166-1.484,1.166
	c-0.742,0-1.007-0.265-1.007-0.954V86.93H86.631z M101.893,77.814V57.836H97.76v11.076c0,0.371,0.106,0.636,0.583,0.636
	c0.53,0,0.795-0.159,1.007-0.742c0.265-0.742,0.424-1.802,0.689-3.815c0.053-0.212,0.477-0.212,0.477,0
	c0.053,1.007,0.053,2.066,0.106,3.073c0.053,0.689,0.212,0.848,0.53,0.954c0.371,0.106,0.424,0.424,0.424,0.901
	c0,0.689-0.265,1.113-0.689,1.272c-0.583,0.212-1.166,0.371-2.385,0.371c-2.438,0-2.809-0.742-2.809-2.385
	c0-0.212,0.053-1.325,0.053-3.604v-7.737h-3.233c0,3.232-0.159,6.465-1.219,9.856c-0.689,2.279-1.961,4.134-3.392,6.095
	c-0.159,0.212-0.636-0.106-0.53-0.318c1.219-2.226,1.855-4.027,2.332-6.147c0.53-2.279,0.795-4.981,0.795-9.486h-3.869v19.979
	H101.893z M86.631,79.14v6.465h15.262V79.14H86.631z M92.513,56.511h3.233v-8.002h-3.233V56.511z M123.515,48.509h-10.917
	c-1.802,0-2.756,0-4.028,0.318l-0.53-2.014c1.537,0.317,2.756,0.371,4.558,0.371h10.546c1.325-1.378,1.431-1.431,1.643-1.431
	c0.159,0,0.318,0.053,1.749,1.219c0.689,0.583,0.742,0.795,0.742,1.007c0,0.318-0.106,0.583-1.325,1.325v5.988
	c0,8.108,0.212,10.546,0.212,11.129c0,0.901-0.53,1.325-1.59,1.325c-0.795,0-1.06-0.318-1.06-1.06v-1.96H111.75v19.501
	c0,2.65,1.643,2.968,6.73,2.968c5.723,0,7.26-0.424,8.002-1.696c0.689-1.166,1.325-3.869,1.749-6.412
	c0.053-0.212,0.477-0.106,0.477,0.106c-0.053,1.59-0.159,4.134-0.159,4.822c0,1.06,0.212,1.272,0.689,1.431
	c0.424,0.159,0.583,0.53,0.583,1.06c0,0.848-1.06,1.749-2.332,2.173c-1.219,0.371-3.18,0.848-10.546,0.848
	c-5.67,0-7.631-1.272-7.631-4.77c0-1.166,0.053-3.074,0.053-10.97c0-7.685,0-9.592-0.265-11.977c0.954,0.371,2.12,1.007,3.073,1.59
	h11.341V48.509z"/>
<path fill="#333333" d="M104.225,186.592c1.431,2.65,3.286,5.035,5.511,7.102c2.65-1.802,5.193-3.975,7.048-5.936
	c1.113-1.113,1.908-2.12,2.173-2.809c2.703,1.643,3.233,2.332,3.233,2.703c0,0.477-0.689,0.583-2.226,0.371
	c-3.762,3.074-5.511,4.187-9.645,6.2c1.325,1.06,2.703,1.961,4.24,2.809c3.868,2.12,8.903,3.126,13.089,3.551
	c0.212,0,0.159,0.424-0.053,0.477c-1.06,0.212-1.484,0.371-2.014,1.749c-0.159,0.318-0.53,0.583-0.901,0.583
	c-0.265,0-1.219-0.159-2.544-0.53c-3.975-1.113-7.313-2.862-9.91-4.61c-3.073-2.12-6.2-5.458-9.38-11.659h-8.002v11.977
	c4.027-0.954,8.479-2.226,11.977-3.55c0.265-0.106,0.424,0.53,0.212,0.636c-5.087,2.649-12.877,5.352-18.283,6.73
	c-0.371,1.484-0.689,1.802-0.954,1.802c-0.424,0-0.742-0.265-1.908-4.24c1.007,0,1.961-0.105,3.656-0.371
	c0.901-0.159,1.855-0.318,2.915-0.53v-18.495c0-4.716,0-7.366-0.106-9.539c-3.233,2.173-6.73,4.081-10.546,5.724
	c-0.318,0.106-0.636-0.477-0.371-0.636c8.002-4.24,15.474-10.652,19.396-16.322c1.007-1.484,1.802-2.862,2.279-4.187
	c2.332,0.742,4.187,1.696,4.187,2.066c0,0.318-0.318,0.478-1.325,0.689c3.445,4.663,7.048,7.684,11.552,10.387
	c4.399,2.649,8.903,3.921,12.242,4.451c0.265,0.053,0.212,0.53-0.053,0.583c-1.007,0.159-1.431,0.318-1.961,1.643
	c-0.106,0.371-0.318,0.583-0.689,0.583c-0.371,0-1.166-0.265-2.491-0.795c-3.127-1.271-6.518-3.338-9.433-5.511
	c-3.286-2.438-6.836-5.83-10.228-10.97c-1.59,2.279-3.392,4.452-5.353,6.413c-1.961,1.96-4.081,3.656-6.306,5.246
	c0.689,0.318,1.325,0.636,1.908,1.007h7.896v-2.544c0-0.954-0.053-1.907-0.212-3.444c3.816,0.424,4.398,0.689,4.398,1.272
	c0,0.371-0.159,0.689-1.749,1.377v3.339h8.744c0.742-0.795,0.848-0.848,1.06-0.848c0.159,0,0.318,0.053,1.484,0.9
	c0.954,0.689,1.007,0.901,1.007,1.113s-0.106,0.424-0.901,0.901v4.557c0,5.988,0.159,7.685,0.159,8.108
	c0,0.848-0.53,1.219-1.537,1.219c-0.689,0-0.954-0.212-1.007-0.742H104.225z M114.506,178.113v-5.405H94.845v5.405H114.506z
	 M94.845,179.438v5.83h19.661v-5.83H94.845z"/>
<rect x="182.182" y="156.523" fill="#B5B5B5" width="51.636" height="32.267"/>
<rect x="182.182" y="188.791" fill="#969696" width="51.636" height="7.719"/>
<rect x="182.182" y="196.554" fill="#D7D7D7" width="51.636" height="11.744"/>
<path fill="#333333" d="M196.092,83.432c0,2.968,1.06,3.869,11.606,3.869c15.421,0,18.919-0.265,20.827-1.643
	c0.954-0.688,1.325-1.643,2.65-5.935c0.053-0.212,0.53-0.053,0.53,0.159c-0.106,1.431-0.318,3.869-0.318,4.292
	c0,1.007,0.159,1.219,0.583,1.325c0.477,0.159,0.583,0.53,0.583,1.06c0,0.848-1.484,1.59-3.338,2.066
	c-2.597,0.689-6.889,1.06-21.251,1.06c-13.195,0-14.414-1.59-14.467-6.253c0-0.795,0.106-2.915,0.106-11.658V60.539
	c-1.802,1.537-3.816,2.967-5.989,4.24c-0.265,0.159-0.689-0.424-0.424-0.583c4.875-3.498,9.592-9.221,12.241-14.521
	c1.06-2.173,1.802-4.187,2.014-5.936c2.756,0.689,4.134,1.272,4.134,1.749c0,0.477-0.53,0.742-2.014,1.06
	c-0.424,1.061-0.901,2.067-1.378,3.021h11.658c0.954-1.113,1.219-1.272,1.484-1.272c0.212,0,0.742,0.265,2.067,1.643
	c0.53,0.53,0.742,0.848,0.742,1.219c0,0.371-0.318,0.53-1.961,1.06c-2.226,3.392-4.24,5.723-6.465,8.002h13.779
	c1.378-1.431,1.484-1.484,1.696-1.484c0.159,0,0.318,0.053,1.855,1.272c0.689,0.583,0.742,0.795,0.742,1.007
	c0,0.318-0.159,0.583-1.378,1.378v4.08c0,4.664,0.106,6.783,0.159,8.32c0.053,0.901-0.53,1.325-1.59,1.325
	c-0.795,0-1.06-0.318-1.06-1.06v-1.96h-27.822V83.432z M201.444,50.894c-1.643,3.074-3.869,5.882-6.412,8.32
	c0.53,0.318,1.06,0.636,1.59,1.007h11.818c2.332-3.232,3.922-5.883,5.352-9.327H201.444z M208.651,71.773V61.545h-12.56v10.228
	H208.651z M223.913,61.545h-12.877v10.228h12.877V61.545z"/>
<rect fill="none" width="320" height="320"/>
<rect id="_x3C_スライス_x3E__6_" fill="none" width="320" height="320"/>
</svg>
