<?xml version="1.0" encoding="utf-8"?>
<!-- Generator: Adobe Illustrator 15.1.0, SVG Export Plug-In  -->
<!DOCTYPE svg PUBLIC "-//W3C//DTD SVG 1.1//EN" "http://www.w3.org/Graphics/SVG/1.1/DTD/svg11.dtd" [
	<!ENTITY ns_flows "http://ns.adobe.com/Flows/1.0/">
]>
<svg version="1.1"
	 xmlns="http://www.w3.org/2000/svg" xmlns:xlink="http://www.w3.org/1999/xlink" xmlns:a="http://ns.adobe.com/AdobeSVGViewerExtensions/3.0/"
	 x="0px" y="0px" width="160px" height="400px" viewBox="0 0 160 400" overflow="visible" enable-background="new 0 0 160 400"
	 xml:space="preserve">
<defs>
</defs>
<rect fill="none" width="160" height="400"/>
<path d="M81.64,168.69c0.187,0.134,0.28,0.32,0.28,0.56c0,0.32-0.146,0.48-0.44,0.48h-6.6v6.4h1.68c0.16,0,0.32-0.073,0.48-0.22
	c0.16-0.146,0.56-0.526,1.2-1.14c0.24-0.24,0.493-0.24,0.76,0c0.773,0.667,1.413,1.307,1.92,1.92c0.267,0.32,0.227,0.6-0.12,0.84
	c-0.347,0.134-0.68,0.28-1,0.44c-0.214,0.107-0.32,0.347-0.32,0.72v4.4c0,2.907,0.053,6.567,0.16,10.98
	c0.106,4.414,0.16,6.446,0.16,6.1c0,0.266-0.187,0.5-0.56,0.7c-0.374,0.2-0.814,0.3-1.32,0.3c-0.507,0-0.76-0.2-0.76-0.6v-2.12
	H66.24v2.2c0,0.213-0.18,0.42-0.54,0.62c-0.36,0.2-0.794,0.3-1.3,0.3c-0.48,0-0.72-0.227-0.72-0.68c0,0.373,0.054-2.14,0.16-7.54
	c0.106-5.4,0.16-9.713,0.16-12.94c0-2.853-0.134-4.64-0.4-5.36c-0.08-0.186-0.067-0.333,0.04-0.44c0.134-0.106,0.28-0.106,0.44,0
	c0.693,0.374,1.533,0.88,2.52,1.52h1.76v-6.4h-4.2c-0.347,0-1.054,0.067-2.12,0.2l-0.32-1.72c0.826,0.187,1.641,0.293,2.44,0.32
	h12.6c0.187,0,0.333-0.053,0.44-0.16c0.426-0.426,0.906-0.92,1.439-1.48c0.213-0.213,0.467-0.226,0.76-0.04
	C79.72,167.09,80.466,167.704,81.64,168.69z M77.16,190.61v-4.28h-2.48c-1.333,0-2-0.56-2-1.68v-7.32h-2.12
	c-0.054,3.174-0.454,5.667-1.2,7.48c-0.561,1.334-1.601,2.774-3.12,4.32v1.48H77.16z M68.36,177.33h-2.12v10.16
	C67.626,185.09,68.333,181.704,68.36,177.33z M77.16,197.25v-5.44H66.24v5.44H77.16z M72.68,176.13v-6.4h-2.12v6.4H72.68z
	 M77.16,177.33h-2.28v6c0,0.48,0.28,0.72,0.84,0.72h1.44V177.33z M98.76,198.33c0,0.747-0.693,1.227-2.08,1.44
	c-2.986,0.48-6.413,0.64-10.28,0.48c-0.987-0.054-1.707-0.2-2.16-0.44c-0.614-0.374-0.92-1.013-0.92-1.92v-14.16
	c0-1.813-0.147-3.053-0.44-3.72c-0.054-0.186-0.02-0.333,0.1-0.44c0.12-0.106,0.26-0.12,0.42-0.04c0.88,0.427,1.8,0.92,2.76,1.48
	h7.16v-11.28H85.68c-0.374,0-1.094,0.067-2.16,0.2l-0.32-1.72c0.826,0.187,1.64,0.293,2.439,0.32h6.88
	c0.186,0,0.333-0.053,0.44-0.16c0.32-0.32,0.76-0.76,1.32-1.32c0.266-0.24,0.533-0.24,0.8,0c0.746,0.587,1.44,1.2,2.08,1.84
	c0.293,0.294,0.273,0.547-0.06,0.76c-0.333,0.214-0.674,0.4-1.02,0.56c-0.187,0.107-0.28,0.347-0.28,0.72
	c0,2.08,0.061,4.814,0.18,8.2c0.12,3.387,0.18,4.96,0.18,4.72c0,0.24-0.247,0.454-0.74,0.64c-0.494,0.187-0.927,0.28-1.3,0.28
	c-0.534,0-0.8-0.24-0.8-0.72v-1.84H85.76v14.28c0,0.8,0.493,1.24,1.48,1.32c2.479,0.214,4.666,0.134,6.56-0.24
	c0.427-0.08,0.72-0.213,0.88-0.4c0.32-0.426,0.894-2.626,1.72-6.6c0.32-0.266,0.586-0.24,0.8,0.08c-0.107,4.134-0.16,6.04-0.16,5.72
	c0,0.427,0.187,0.68,0.56,0.76C98.373,197.317,98.76,197.717,98.76,198.33z"/>
<path d="M97.88,322.3c0,0.72-0.68,1.28-2.04,1.68c-2.507,0.747-7.28,1.12-14.32,1.12c-6.293,0-10.134-0.12-11.52-0.36
	c-0.907-0.187-1.554-0.5-1.94-0.94c-0.387-0.44-0.58-1.14-0.58-2.1v-18.04c-1.787,1.627-3.6,2.987-5.44,4.08
	c-0.4-0.08-0.547-0.306-0.44-0.68c5.28-4.426,9.12-9.293,11.52-14.6c0.32-0.72,0.506-1.373,0.56-1.96
	c0.026-0.426,0.094-0.666,0.2-0.72c0.133-0.08,0.28-0.08,0.44,0c1.493,0.827,2.68,1.547,3.56,2.16c0.213,0.134,0.267,0.32,0.16,0.56
	c-0.107,0.214-0.294,0.294-0.56,0.24c-0.667-0.133-1.16,0.067-1.48,0.6c-0.267,0.427-0.534,0.867-0.8,1.32h7.439
	c0.187,0,0.333-0.053,0.44-0.16c0.48-0.426,0.96-0.84,1.44-1.24c0.24-0.213,0.506-0.213,0.8,0c0.88,0.667,1.746,1.374,2.6,2.12
	c0.187,0.16,0.267,0.347,0.24,0.56c-0.054,0.214-0.174,0.334-0.36,0.36c-0.374,0.08-0.854,0.174-1.439,0.28
	c-0.454,0.107-0.92,0.374-1.4,0.8c-1.174,1.146-2.773,2.733-4.8,4.76h8.96c0.186,0,0.333-0.053,0.44-0.16
	c0.293-0.32,0.693-0.8,1.2-1.44c0.213-0.24,0.48-0.24,0.8,0c0.853,0.614,1.68,1.294,2.48,2.04c0.346,0.32,0.293,0.587-0.16,0.8
	c-0.24,0.106-0.627,0.267-1.16,0.48c-0.213,0.106-0.32,0.347-0.32,0.72c0,0.88,0.046,2.52,0.14,4.92c0.093,2.4,0.14,3.667,0.14,3.8
	c0,0.24-0.227,0.467-0.68,0.68c-0.454,0.214-0.96,0.32-1.52,0.32c-0.48,0-0.72-0.213-0.72-0.64v-1.36h-19.8v8.52
	c0,0.747,0.386,1.227,1.16,1.44c0.986,0.267,4.48,0.4,10.48,0.4c5.626,0,9.226-0.293,10.8-0.88c0.56-0.213,1-0.653,1.32-1.32
	c0.48-0.986,1.04-2.946,1.68-5.88c0.346-0.24,0.626-0.186,0.84,0.16c-0.16,2.054-0.24,3.867-0.24,5.44
	c0,0.454,0.146,0.734,0.44,0.84C97.4,321.34,97.88,321.767,97.88,322.3z M82.88,295.86H74.4c-1.414,2.027-3.027,3.96-4.84,5.8
	l0.76,0.48h8.6C80.573,299.687,81.893,297.593,82.88,295.86z M78.56,311.1v-7.76h-8.6v7.76H78.56z M89.76,311.1v-7.76H81.2v7.76
	H89.76z"/>
<path fill="#636363" d="M76.425,44.183l-1.416-6.66c-1.661,0.351-3.256,0.877-4.771,1.552l2.771,6.225
	C74.095,44.816,75.235,44.435,76.425,44.183z"/>
<path fill="#878787" d="M83.573,44.183l1.416-6.66C83.379,37.182,81.711,37,80,37v6.806C81.226,43.806,82.42,43.939,83.573,44.183z"
	/>
<path fill="#636363" d="M80,43.806V37c-1.711,0-3.38,0.182-4.991,0.523l1.416,6.66C77.579,43.939,78.773,43.806,80,43.806z"/>
<path fill="#BFBFBF" d="M73.01,45.301l-2.771-6.225c-1.54,0.687-2.995,1.53-4.343,2.511l4.008,5.517
	C70.87,46.401,71.907,45.793,73.01,45.301z"/>
<path fill="#BFBFBF" d="M65.121,52.41l-5.903-3.408c-0.833,1.44-1.521,2.973-2.044,4.582l6.479,2.105
	C64.026,54.536,64.524,53.441,65.121,52.41z"/>
<path fill="#BFBFBF" d="M67.237,49.509l-5.071-4.566c-1.119,1.241-2.106,2.603-2.948,4.059l5.903,3.408
	C65.725,51.367,66.436,50.398,67.237,49.509z"/>
<path fill="#BFBFBF" d="M63.652,55.688l-6.479-2.105c-0.51,1.572-0.866,3.213-1.042,4.908l6.771,0.711
	C63.028,57.989,63.287,56.815,63.652,55.688z"/>
<path fill="#BFBFBF" d="M69.903,47.104l-4.008-5.517c-1.357,0.988-2.608,2.111-3.729,3.356l5.071,4.566
	C68.04,48.617,68.932,47.812,69.903,47.104z"/>
<path fill="#878787" d="M86.989,45.3l2.771-6.225c-1.515-0.675-3.11-1.201-4.771-1.552l-1.416,6.66
	C84.763,44.435,85.903,44.816,86.989,45.3z"/>
<path fill="#3D3D3D" d="M97.193,61c0,0.607-0.033,1.207-0.095,1.798l6.771,0.712C103.955,62.684,104,61.848,104,61
	c0-0.847-0.045-1.684-0.131-2.509l-6.771,0.711C97.16,59.794,97.193,60.393,97.193,61z"/>
<path fill="#878787" d="M96.348,55.688l6.479-2.105c-0.523-1.609-1.211-3.142-2.045-4.582l-5.903,3.409
	C95.475,53.441,95.973,54.535,96.348,55.688z"/>
<path fill="#3D3D3D" d="M97.099,59.203l6.771-0.711c-0.176-1.695-0.532-3.336-1.042-4.908l-6.479,2.105
	C96.713,56.814,96.972,57.988,97.099,59.203z"/>
<path fill="#878787" d="M90.096,47.103l4.008-5.517c-1.349-0.981-2.803-1.824-4.343-2.511L86.989,45.3
	C88.092,45.792,89.129,46.4,90.096,47.103z"/>
<path fill="#878787" d="M94.878,52.409l5.903-3.409c-0.842-1.456-1.83-2.817-2.948-4.059l-5.071,4.566
	C93.564,50.397,94.275,51.366,94.878,52.409z"/>
<path fill="#878787" d="M92.762,49.508l5.071-4.566c-1.122-1.244-2.373-2.368-3.73-3.355l-4.008,5.517
	C91.067,47.811,91.959,48.616,92.762,49.508z"/>
<path fill="#D9D9D9" d="M69.903,74.896l-4.009,5.517c1.349,0.981,2.803,1.824,4.343,2.511l2.771-6.225
	C71.906,76.207,70.869,75.599,69.903,74.896z"/>
<path fill="#D9D9D9" d="M90.096,74.896l4.008,5.517c1.357-0.988,2.608-2.111,3.729-3.355l-5.071-4.566
	C91.959,73.384,91.067,74.189,90.096,74.896z"/>
<path fill="#D9D9D9" d="M86.989,76.7l2.771,6.225c1.541-0.687,2.995-1.53,4.343-2.511l-4.008-5.517
	C89.129,75.6,88.093,76.208,86.989,76.7z"/>
<path fill="#D9D9D9" d="M83.574,77.817l1.416,6.66c1.661-0.352,3.256-0.877,4.771-1.552L86.989,76.7
	C85.904,77.184,84.764,77.565,83.574,77.817z"/>
<path fill="#3D3D3D" d="M94.878,69.591l5.903,3.409c0.833-1.44,1.522-2.973,2.044-4.582l-6.479-2.105
	C95.973,67.465,95.475,68.559,94.878,69.591z"/>
<path fill="#3D3D3D" d="M97.099,62.798c-0.126,1.215-0.385,2.388-0.751,3.515l6.479,2.105c0.511-1.572,0.867-3.213,1.043-4.908
	L97.099,62.798z"/>
<path fill="#D9D9D9" d="M80,78.194V85c1.711,0,3.38-0.182,4.99-0.523l-1.416-6.66C82.42,78.061,81.226,78.194,80,78.194z"/>
<path fill="#D9D9D9" d="M92.762,72.492l5.071,4.566c1.119-1.241,2.106-2.603,2.948-4.059l-5.903-3.409
	C94.275,70.634,93.564,71.603,92.762,72.492z"/>
<path fill="#BFBFBF" d="M62.807,61c0-0.607,0.033-1.206,0.095-1.797l-6.771-0.711C56.045,59.316,56,60.153,56,61
	c0,0.847,0.045,1.684,0.131,2.509l6.771-0.712C62.84,62.206,62.807,61.607,62.807,61z"/>
<path fill="#D9D9D9" d="M63.652,66.312l-6.479,2.105c0.523,1.609,1.211,3.142,2.044,4.581l5.903-3.408
	C64.524,68.559,64.027,67.464,63.652,66.312z"/>
<path fill="#D9D9D9" d="M65.121,69.59l-5.903,3.408c0.842,1.456,1.83,2.817,2.948,4.059l5.071-4.566
	C66.435,71.602,65.725,70.633,65.121,69.59z"/>
<path fill="#BFBFBF" d="M62.901,62.797l-6.771,0.712c0.176,1.695,0.532,3.336,1.042,4.908l6.479-2.105
	C63.287,65.186,63.028,64.012,62.901,62.797z"/>
<path fill="#D9D9D9" d="M76.424,77.816l-1.416,6.66C76.619,84.818,78.288,85,80,85v-6.806
	C78.773,78.194,77.579,78.061,76.424,77.816z"/>
<path fill="#D9D9D9" d="M73.009,76.699l-2.771,6.225c1.514,0.676,3.11,1.201,4.771,1.553l1.416-6.66
	C75.234,77.564,74.095,77.183,73.009,76.699z"/>
<path fill="#D9D9D9" d="M67.237,72.491l-5.071,4.566c1.121,1.244,2.372,2.368,3.729,3.355l4.009-5.517
	C68.932,74.188,68.039,73.383,67.237,72.491z"/>
<rect id="_x3C_スライス_x3E__2_" fill="none" width="160" height="400"/>
</svg>
